<svg xmlns="http://www.w3.org/2000/svg" width="30" height="30" viewBox="0 0 30 30">
    <path fill="#FFF" fill-rule="evenodd" d="M30 15c0 8.284-6.716 15-15 15-8.284 0-15-6.716-15-15C0 6.716 6.716 0 15 0c8.284 0 15 6.716 15 15zm-7 .635c0-2.9-1.586-4.251-3.702-4.251-1.708 0-2.47.918-2.898 1.561v.03h-.021c.006-.01.015-.02.02-.03v-1.34h-3.216c.043.887 0 9.448 0 9.448H16.4v-5.276c0-.284.021-.564.106-.765.233-.565.762-1.15 1.65-1.15 1.165 0 1.628.867 1.628 2.137v5.054H23v-5.418zM9.82 7.053C8.719 7.053 8 7.758 8 8.685c0 .907.698 1.632 1.778 1.632h.02c1.121 0 1.82-.725 1.82-1.632-.022-.927-.699-1.632-1.798-1.632zm-1.63 14h3.215v-9.447H8.191v9.447z"/>
</svg>
