<svg xmlns="http://www.w3.org/2000/svg" width="140" height="30" viewBox="0 0 140 30">
    <g fill="none" fill-rule="evenodd">
        <path fill="#64CAE1" d="M35.83 24.063h1.967V16.04h6.657l.18-1.78h-6.837V8.01h8.342V6.234H35.83zM50.25 13.032c-.157-.791-.359-1.581-.615-2.266l-1.582.357c.356 1.398.458 2.98.458 4.559v8.381H50.4v-8.61c.74-1.883 1.967-2.777 4.058-2.799l-.256-2.042c-2.038.154-3.244.97-3.952 2.42M62.392 22.762c-3.267 0-3.828-1.986-3.828-5.27 0-3.286.56-5.275 3.828-5.275s3.83 1.99 3.83 5.275c0 3.284-.562 5.27-3.83 5.27m0-12.15c-4.11 0-5.742 2.19-5.742 6.88 0 4.685 1.631 6.879 5.742 6.879 4.107 0 5.74-2.194 5.74-6.88 0-4.689-1.633-6.88-5.74-6.88M77.723 10.611c-2.166 0-3.495.74-4.283 2.116a13.259 13.259 0 0 0-.537-1.961l-1.58.357c.357 1.398.459 2.98.459 4.558v8.382h1.887v-9.218c.843-1.686 1.784-2.655 3.7-2.655 2.755 0 2.908 1.812 2.908 4.69v7.183h1.888v-7.537c0-3.084-.64-5.915-4.442-5.915M89.003 6.66l-1.891.263v3.994h-2.243v1.604h2.243v5.248c0 2.883.158 4.993 2.27 6.676l1.28-1.068c-1.632-1.551-1.66-2.831-1.66-5.07V12.52h2.758l.177-1.604h-2.934V6.66zM99.923 22.762c-1.143 0-2.346-.046-3.343-.457v-7.46c.841-1.686 1.786-2.654 3.702-2.654 2.576 0 3.134 2.036 3.134 5.3 0 4.23-1.323 5.271-3.493 5.271m.665-12.15c-1.992 0-3.266.637-4.008 1.91V5.772l-1.888.255v17.527c1.581.61 3.368.816 5.157.816 3.009 0 5.484-1.331 5.484-6.88 0-4.561-1.428-6.88-4.745-6.88M112.708 22.254l-3.471-11.488-2.02.38 4.365 12.687c-.303 1.351-1.02 2.295-2.834 3.21l.82 1.327c2.474-.996 3.702-3.085 4.566-5.68l3.905-11.567-1.838-.357-3.493 11.488zM123.806 6.66l-1.891.263v3.994h-2.244v1.604h2.244v5.248c0 2.883.154 4.993 2.272 6.676l1.276-1.068c-1.636-1.551-1.657-2.831-1.657-5.07V12.52h2.753l.18-1.604h-2.933V6.66zM130.618 17.263v-.284c0-3.538 1.376-4.762 3.596-4.762 2.066 0 3.314 1.07 3.369 4.383l-6.965.663zm8.827.535c0-5.608-1.917-7.187-5.231-7.187-2.86 0-5.485 1.175-5.485 6.881 0 5.448 2.27 6.879 5.74 6.879 1.58 0 3.087-.308 4.412-1.173l-.688-1.454c-1.198.715-2.373 1.018-3.725 1.018-2.349 0-3.726-.936-3.804-4.022l8.781-.716v-.226zM15 0C6.715 0 0 6.715 0 15.001 0 23.286 6.715 30 15 30c8.286 0 15-6.714 15-14.999C30 6.715 23.286 0 15 0"/>
        <path fill="#2D2D42" d="M10.953 9.018h2.504l1.252 2.166-1.252 2.167h-2.504l-1.255-2.167 1.255-2.166zm2.504 15.154h-2.505l-1.255-2.167 1.255-2.168h2.505l1.252 2.168-1.252 2.167zm0-5.413h-2.505l-1.255-2.166 1.255-2.168h2.505l1.252 2.168-1.252 2.166zm4.846-2.702h-2.506l-1.253-2.166 1.253-2.163h2.506l1.253 2.163-1.253 2.166zm0-5.41h-2.506l-1.253-2.166 1.253-2.167h2.506l1.253 2.167-1.253 2.167z"/>
    </g>
</svg>
