<svg xmlns="http://www.w3.org/2000/svg" width="40" height="40" viewBox="0 0 40 40">
    <g fill="none" fill-rule="evenodd">
        <path fill="#64CAE1" d="M20 0C8.953 0 0 8.954 0 20.001S8.953 40 20 40s20-8.952 20-19.999C40 8.954 31.047 0 20 0"/>
        <path fill="#2D2D42" d="M14.604 12.024h3.34l1.668 2.888-1.669 2.89h-3.34l-1.673-2.89 1.674-2.888zm3.339 20.205h-3.34l-1.673-2.89 1.673-2.89h3.34l1.669 2.89-1.67 2.89zm0-7.217h-3.34l-1.673-2.889 1.673-2.89h3.34l1.669 2.89-1.67 2.889zm6.461-3.603h-3.342l-1.67-2.888 1.67-2.883h3.342l1.671 2.883-1.67 2.888zm0-7.212h-3.342l-1.67-2.888 1.67-2.89h3.342l1.671 2.89-1.67 2.888z"/>
    </g>
</svg>
