<svg xmlns="http://www.w3.org/2000/svg" width="32" height="24" viewBox="0 0 32 24">
    <g fill="none" fill-rule="evenodd">
        <path fill="#2E2D42" d="M14.772 8.134h.285l.276-.238.276.238h.713l.276-.238.277.238h.288l-.569 4.057h-1.253l-.569-4.057zm1.195-7.001a4.782 4.782 0 0 1 4.777 4.776c-.001.023-.077 2.38-2.024 4.888-.257.341-.434.81-.526 1.394h-.498l.735-5.242-.865-.12-.057-.067-.058.05-.1-.014-.016.114-.103.089-.278-.239h-.712L15.965 7l-.275-.238h-.713L14.7 7l-.1-.087-.016-.115-.102.014-.057-.05-.056.066-.866.12.735 5.243h-.504c-.09-.585-.266-1.054-.527-1.401-1.943-2.5-2.018-4.858-2.018-4.88a4.782 4.782 0 0 1 4.777-4.777zM5.481 5.959h4.62c.007.13.036.524.157 1.091.225 1.055.768 2.71 2.083 4.403.193.256.32.725.36 1.32l.035.51h.158v.062h.961v.527h-.96v1.09h6.146v-1.09h-4.094v-.527h4.094v-.062h.145l.037-.506c.044-.596.175-1.067.364-1.318 1.318-1.697 1.863-3.354 2.088-4.409.122-.567.151-.96.158-1.091h4.62c.124 0 .224.1.224.223v13.659H5.257V6.182c0-.123.1-.223.224-.223zM30.03 21.48c-.342.22-.869.496-1.207.496H3.11c-.33 0-.845-.263-1.206-.496v-.548H30.03v.548zM27.768 6.182c0-.725-.59-1.314-1.314-1.314h-4.717c-.494-2.74-2.89-4.826-5.77-4.826-2.879 0-5.276 2.086-5.77 4.826H5.481c-.725 0-1.314.59-1.314 1.314v13.659H.813v2.2l.219.163c.118.088 1.18.863 2.078.863h25.714c.898 0 1.961-.775 2.079-.863l.22-.163v-2.2h-3.355V6.182z"/>
        <path fill="#FEFEFE" d="M13.958 16.58h4.02v-1.091h-4.02v1.09zm-7.61 2.219h19.237V7.049h-3.91c-.225 1.056-.77 2.713-2.088 4.41-.189.25-.32.721-.364 1.318l-.037.506h-.145v.062h-4.094v.527h4.094v1.09h-6.147v-1.09h.962v-.527h-.962v-.062h-.158l-.035-.51c-.04-.596-.167-1.064-.36-1.32-1.315-1.692-1.858-3.348-2.083-4.403h-3.91v11.749z"/>
        <path fill="#2E2D42" d="M13.957 16.58h4.02v-1.091h-4.02z"/>
    </g>
</svg>
