<svg xmlns="http://www.w3.org/2000/svg" width="28" height="30" viewBox="0 0 28 30">
    <g fill="none" fill-rule="evenodd">
        <path fill="#2E2D42" d="M16.33 27.823c.025.127.052.232.08.327h-4.934c.03-.095.056-.2.082-.327.081-.413.073-1.006.066-1.578a32.869 32.869 0 0 1-.003-.328h4.647l-.003.345c-.009.563-.017 1.147.066 1.56zm9.836-2.998H1.914c-.1 0-.297-.203-.297-.335V22.88h24.67v1.648c0 .169-.086.298-.12.298zm1.205-3.052V7.268c0-.69-.562-1.251-1.253-1.251h-3.632v-.931h-1.092V20.27h1.092V7.109h3.632a.16.16 0 0 1 .16.16v14.518H1.616V7.268c0-.088.07-.16.16-.16h3.673v13.163H6.54V1.936h11.705V.845H5.45v5.172H1.775c-.69 0-1.251.56-1.251 1.251V22.88h.001v1.611c0 .734.675 1.427 1.389 1.427h8.615l.003.342c.004.216.006.457.003.683a4.282 4.282 0 0 1-.048.669 1.93 1.93 0 0 1-.068.271c-.026.016-.054.03-.088.05l-.038.02a9.09 9.09 0 0 1-.414.199h-.69v1.092h9.529V28.15h-.729a9.658 9.658 0 0 1-.433-.21c-.034-.018-.063-.032-.088-.048a2.449 2.449 0 0 1-.066-.281 3.9 3.9 0 0 1-.048-.636c-.004-.23 0-.478.002-.7l.004-.358h8.806c.76 0 1.212-.708 1.212-1.39v-2.754h-.007z"/>
        <path fill="#FEFEFE" d="M3.084 20.27h2.364V8.61H3.084zM22.486 20.27h2.297V8.61h-2.297zM18.246 5.085h4.208L18.246.877v1.06z"/>
        <path fill="#2E2D42" d="M18.921 7.11V6.02h-7.657V7.11zM11.264 8.818h7.657V7.726h-7.657zM8.42 7.03l-.592.917 1.194.77 1.493-1.87-.357-.285-.497-.397-.317.397-.56.703zM11.264 12.203h7.657v-1.092h-7.657zM11.264 13.91h7.657V12.82h-7.657zM10.514 11.94l-.854-.682-.876 1.1-.365-.236-.593.918 1.196.77zM11.264 17.296h7.657v-1.092h-7.657zM11.264 19.003h7.657v-1.092h-7.657zM10.514 17.032l-.854-.68-.876 1.099-.365-.236-.593.918 1.196.77z"/>
    </g>
</svg>
