<svg xmlns="http://www.w3.org/2000/svg" width="14" height="35" viewBox="0 0 14 35">
    <g fill="none" fill-rule="evenodd">
        <path stroke="#2E2E41" stroke-width="1.111" d="M10.278 26.551l2.047.868 1.047-1.834-4.399-12.678"/>
        <path fill="#FFF" d="M.999 2.327c-.98.727.265 3.216 1.044 4.562a15.894 15.894 0 0 1 4.704-.044c.78-1.355 1.989-3.799 1.018-4.518 0 0-2.865-1.985-6.766 0"/>
        <path stroke="#2E2E41" stroke-width="1.111" d="M.999 2.327c-.98.727.265 3.216 1.044 4.562a15.894 15.894 0 0 1 4.704-.044c.78-1.355 1.989-3.799 1.018-4.518 0 0-2.865-1.985-6.766 0z"/>
        <path fill="#FFF" d="M2.551 9.177L.578 29.807l3.925 3.902 3.684-3.901-1.978-20.67"/>
        <path stroke="#2E2E41" stroke-width="1.111" d="M2.551 9.177L.578 29.807l3.925 3.902 3.684-3.901-1.978-20.67"/>
    </g>
</svg>
