<svg xmlns="http://www.w3.org/2000/svg" width="903" height="441" viewBox="0 0 903 441" >
    <path fill="#2D2D42" fill-rule="evenodd" d="M249.084 433.665a3.189 3.189 0 1 0 .002 6.378 3.189 3.189 0 0 0-.002-6.378m0-3.836a2.833 2.833 0 1 0-.001-5.665 2.833 2.833 0 0 0 .001 5.665m-9.855-5.686a2.854 2.854 0 1 0-.002 5.708 2.854 2.854 0 0 0 .002-5.708m9.855-10.191a3.188 3.188 0 1 0 0 6.375 3.188 3.188 0 0 0 0-6.375m-9.855 0a3.189 3.189 0 1 0 .001 6.377 3.189 3.189 0 0 0-.001-6.377m611.072-9.854a3.188 3.188 0 1 0 0 6.376 3.188 3.188 0 0 0 0-6.376m-601.217 0a3.188 3.188 0 1 0 0 6.376 3.188 3.188 0 0 0 0-6.376m-13.035 3.186a3.179 3.179 0 1 0 6.358 0 3.179 3.179 0 0 0-6.358 0m624.109-13.044a3.187 3.187 0 0 0-3.187 3.19 3.188 3.188 0 1 0 3.187-3.19m-601.218 0a3.188 3.188 0 1 0 .003 6.377 3.188 3.188 0 0 0-.003-6.377m-9.856 0a3.188 3.188 0 1 0 0 6.376 3.188 3.188 0 0 0 0-6.376m-7.69 3.19c0-1.198-.97-2.165-2.165-2.165a2.163 2.163 0 1 0 0 4.328 2.165 2.165 0 0 0 2.165-2.163m628.62-13.045a3.19 3.19 0 0 0-3.19 3.187 3.19 3.19 0 0 0 6.377 0 3.186 3.186 0 0 0-3.187-3.187m-611.074 0a3.187 3.187 0 1 0 0 6.375 3.188 3.188 0 1 0 0-6.375m-9.855 0a3.188 3.188 0 1 0-.003 6.375 3.188 3.188 0 0 0 .003-6.375m-9.856 0a3.187 3.187 0 1 0 0 6.375 3.188 3.188 0 1 0 0-6.375m561.792-9.857a3.188 3.188 0 0 0-3.187 3.189 3.187 3.187 0 1 0 6.375 0 3.188 3.188 0 0 0-3.188-3.189m-9.857 0a3.187 3.187 0 0 0-3.185 3.189 3.186 3.186 0 1 0 6.375 0 3.19 3.19 0 0 0-3.19-3.189m-9.853 0a3.19 3.19 0 1 0 0 6.377 3.19 3.19 0 0 0 3.187-3.188 3.19 3.19 0 0 0-3.187-3.189m-9.858 0a3.19 3.19 0 1 0 3.188 3.189 3.188 3.188 0 0 0-3.188-3.189m-502.656 0a3.19 3.19 0 0 0 0 6.377 3.187 3.187 0 0 0 3.187-3.188 3.188 3.188 0 0 0-3.187-3.189m-9.857 0a3.188 3.188 0 1 0 .002 6.376 3.188 3.188 0 0 0-.002-6.376m-9.856 0a3.19 3.19 0 1 0 .002 6.378 3.19 3.19 0 0 0-.002-6.378m561.793-7.926a1.258 1.258 0 1 0 0 2.516 1.258 1.258 0 0 0 0-2.516m-9.856-1.93a3.188 3.188 0 1 0 .001 6.375 3.188 3.188 0 0 0-.001-6.375m-9.857 0a3.187 3.187 0 0 0-3.185 3.189 3.188 3.188 0 1 0 3.185-3.189m-9.855 0a3.19 3.19 0 1 0 .002 6.378 3.19 3.19 0 0 0-.002-6.378m-9.856 0a3.188 3.188 0 1 0-.002 6.376 3.188 3.188 0 0 0 .002-6.376m-29.566 0a3.191 3.191 0 0 0-3.192 3.189 3.19 3.19 0 0 0 6.377 0 3.187 3.187 0 0 0-3.185-3.189m-9.858 0a3.189 3.189 0 0 0 0 6.376 3.188 3.188 0 1 0 0-6.376m-9.857 0a3.19 3.19 0 1 0 .002 6.378 3.19 3.19 0 0 0-.002-6.378m-226.688 0a3.188 3.188 0 0 0 0 6.376 3.19 3.19 0 1 0 0-6.376m-9.855 0a3.188 3.188 0 1 0 0 6.376 3.185 3.185 0 0 0 3.187-3.187 3.187 3.187 0 0 0-3.187-3.189m-9.858 0a3.187 3.187 0 0 0-3.185 3.189 3.188 3.188 0 1 0 3.185-3.189m-187.263 0a3.188 3.188 0 1 0 0 6.377 3.188 3.188 0 0 0 0-6.377m-9.857 0a3.189 3.189 0 1 0 .004 6.378 3.189 3.189 0 0 0-.004-6.378m-9.855 6.376a3.188 3.188 0 1 0 0-6.376 3.188 3.188 0 0 0 0 6.376m-9.856 0a3.188 3.188 0 1 0 0-6.375 3.188 3.188 0 0 0 0 6.375m-9.856 0a3.188 3.188 0 1 0 0-6.375 3.188 3.188 0 0 0 0 6.375m561.791-16.232a3.188 3.188 0 1 0 .004 6.376 3.188 3.188 0 0 0-.004-6.376m-9.854 6.377a3.187 3.187 0 0 0 3.188-3.189 3.188 3.188 0 1 0-3.188 3.189m-9.857 0a3.189 3.189 0 1 0 0-6.377 3.186 3.186 0 0 0-3.185 3.188 3.186 3.186 0 0 0 3.185 3.189m-9.855-6.377a3.188 3.188 0 1 0 0 6.376 3.188 3.188 0 0 0 0-6.376m-9.856 6.377a3.187 3.187 0 0 0 3.188-3.189 3.19 3.19 0 1 0-3.188 3.189m-9.855-6.377a3.187 3.187 0 0 0-3.188 3.188 3.187 3.187 0 1 0 6.375 0 3.188 3.188 0 0 0-3.187-3.188m-9.858 0a3.187 3.187 0 0 0-3.187 3.188 3.188 3.188 0 1 0 6.377 0 3.189 3.189 0 0 0-3.19-3.188m-9.853 6.377a3.187 3.187 0 0 0 3.185-3.189 3.186 3.186 0 0 0-3.185-3.188 3.19 3.19 0 0 0-3.192 3.188 3.19 3.19 0 0 0 3.192 3.189m-9.858-6.377a3.188 3.188 0 1 0 .002 6.376 3.188 3.188 0 0 0-.002-6.376m-9.857 0a3.188 3.188 0 1 0 0 6.376 3.188 3.188 0 0 0 0-6.376m-226.688 6.377a3.19 3.19 0 0 0 3.19-3.189 3.19 3.19 0 0 0-3.19-3.188 3.187 3.187 0 0 0-3.187 3.188 3.187 3.187 0 0 0 3.187 3.189m-9.855 0a3.188 3.188 0 0 0 3.187-3.189 3.189 3.189 0 1 0-3.187 3.189m-9.858-6.377a3.186 3.186 0 0 0-3.185 3.188 3.187 3.187 0 1 0 6.375 0 3.189 3.189 0 0 0-3.19-3.188m-177.407.023a3.165 3.165 0 1 0-.002 6.33 3.165 3.165 0 0 0 .002-6.33m-9.856 6.354a3.186 3.186 0 0 0 3.187-3.189 3.188 3.188 0 1 0-3.187 3.189m-9.857 0a3.188 3.188 0 1 0 .002-6.376 3.188 3.188 0 0 0-.002 6.376m-9.855 0a3.187 3.187 0 0 0 3.188-3.189 3.19 3.19 0 1 0-3.188 3.189m-9.856 0a3.188 3.188 0 1 0 0-6.376 3.188 3.188 0 0 0 0 6.376m-9.856 0a3.188 3.188 0 1 0 0-6.376 3.188 3.188 0 0 0 0 6.376m561.791-9.856a3.19 3.19 0 1 0 .003-6.38 3.19 3.19 0 0 0-.003 6.38m-9.854-6.377a3.19 3.19 0 1 0 0 6.378 3.19 3.19 0 0 0 0-6.378m-9.857 6.377a3.189 3.189 0 1 0 0-6.377 3.186 3.186 0 0 0-3.185 3.188 3.186 3.186 0 0 0 3.185 3.189m-9.855 0a3.19 3.19 0 0 0 3.189-3.189 3.188 3.188 0 1 0-6.377 0 3.187 3.187 0 0 0 3.188 3.189m-9.856-6.377a3.19 3.19 0 0 0 0 6.377 3.188 3.188 0 0 0 0-6.377m-9.855 6.377a3.188 3.188 0 1 0-.002-6.376 3.188 3.188 0 0 0 .002 6.376m-9.858-6.377a3.188 3.188 0 1 0 .002 6.376 3.188 3.188 0 0 0-.002-6.376m-9.853 6.377a3.187 3.187 0 0 0 3.185-3.189 3.188 3.188 0 1 0-6.377 0 3.19 3.19 0 0 0 3.192 3.189m-9.858 0a3.187 3.187 0 0 0 3.188-3.189 3.188 3.188 0 1 0-3.188 3.189m-9.857 0a3.186 3.186 0 0 0 3.187-3.189 3.187 3.187 0 1 0-6.375 0 3.188 3.188 0 0 0 3.188 3.189M505.34 344.96a3.189 3.189 0 0 0 0 6.377 3.186 3.186 0 0 0 3.187-3.189 3.187 3.187 0 0 0-3.187-3.188m-9.856 6.377a3.188 3.188 0 1 0 0-6.377 3.188 3.188 0 0 0 0 6.377m-9.857 0a3.188 3.188 0 1 0 .002-6.376 3.188 3.188 0 0 0-.002 6.376m-9.856 0a3.189 3.189 0 1 0 0-6.377 3.187 3.187 0 0 0-3.185 3.188 3.187 3.187 0 0 0 3.185 3.189m-9.855-6.377a3.187 3.187 0 0 0-3.187 3.188 3.186 3.186 0 1 0 6.375 0 3.189 3.189 0 0 0-3.188-3.188m-167.552 0a3.188 3.188 0 1 0 0 6.376 3.188 3.188 0 0 0 0-6.376m-9.856 6.377a3.186 3.186 0 0 0 3.187-3.189 3.19 3.19 0 1 0-3.187 3.189m-9.857 0a3.188 3.188 0 1 0 .002-6.376 3.188 3.188 0 0 0-.002 6.376m-9.855 0a3.187 3.187 0 0 0 3.188-3.189 3.188 3.188 0 1 0-6.377 0 3.189 3.189 0 0 0 3.189 3.189m-9.856 0a3.188 3.188 0 1 0 0-6.377 3.188 3.188 0 0 0 0 6.377m-9.856 0a3.188 3.188 0 1 0 0-6.376 3.188 3.188 0 0 0 0 6.376m551.937-9.857a3.19 3.19 0 0 0 3.188-3.187 3.19 3.19 0 0 0-6.377 0 3.188 3.188 0 0 0 3.189 3.187m-9.857 0a3.188 3.188 0 1 0 .003-6.377 3.188 3.188 0 0 0-.003 6.377m-9.855 0a3.19 3.19 0 0 0 3.189-3.187 3.188 3.188 0 1 0-3.189 3.187m-9.858 0a3.188 3.188 0 1 0 .003-6.377 3.188 3.188 0 0 0-.003 6.377m-9.853 0a3.188 3.188 0 1 0-.002-6.376 3.188 3.188 0 0 0 .002 6.376m-9.858 0a3.188 3.188 0 1 0 0-6.376 3.188 3.188 0 0 0 0 6.376m-9.855 0a3.187 3.187 0 0 0 0-6.376 3.188 3.188 0 0 0 0 6.376m-9.856 0a3.188 3.188 0 1 0 0-6.376 3.188 3.188 0 0 0 0 6.376m-9.857 0a3.186 3.186 0 0 0 3.187-3.187 3.187 3.187 0 1 0-6.375 0 3.188 3.188 0 0 0 3.188 3.187m-177.408-6.376a3.19 3.19 0 0 0-3.19 3.189 3.19 3.19 0 0 0 6.379 0 3.19 3.19 0 0 0-3.189-3.189m-9.856 0a3.188 3.188 0 1 0 .002 6.376 3.188 3.188 0 0 0-.002-6.376m-29.568 6.376a3.186 3.186 0 0 0 3.187-3.187 3.187 3.187 0 0 0-3.187-3.189 3.19 3.19 0 0 0-3.19 3.189 3.19 3.19 0 0 0 3.19 3.187m-9.856 0a3.188 3.188 0 1 0 0-6.376 3.188 3.188 0 0 0 0 6.376m-9.857 0a3.188 3.188 0 1 0 0-6.376 3.188 3.188 0 1 0 0 6.376m-9.856 0a3.188 3.188 0 1 0 .003-6.377 3.188 3.188 0 0 0-.003 6.377m-9.855 0a3.188 3.188 0 1 0 0-6.376 3.188 3.188 0 0 0 0 6.376m-147.84-6.376a3.188 3.188 0 1 0 0 6.377 3.188 3.188 0 0 0 0-6.377m-9.856 0a3.188 3.188 0 1 0 0 6.377 3.188 3.188 0 0 0 0-6.377m-9.856 6.376a3.188 3.188 0 1 0 .002-6.376 3.188 3.188 0 0 0-.002 6.376m-9.856 0a3.188 3.188 0 1 0-.001-6.377 3.188 3.188 0 0 0 .001 6.377m-9.857 0a3.188 3.188 0 1 0 .003-6.375 3.188 3.188 0 0 0-.003 6.375m-9.855 0a3.187 3.187 0 1 0 0-6.374 3.187 3.187 0 0 0 0 6.374m-9.857 0a3.188 3.188 0 1 0 .002-6.376 3.188 3.188 0 0 0-.002 6.376m-9.855 0a3.187 3.187 0 1 0 .001-6.375 3.187 3.187 0 0 0-.001 6.375m542.08-9.855a3.188 3.188 0 1 0 0 0m-9.855 0a3.189 3.189 0 0 0 0-6.376 3.188 3.188 0 1 0 0 6.376m-9.858 0a3.188 3.188 0 1 0 0 0m-9.853 0a3.189 3.189 0 1 0-.004-6.378 3.189 3.189 0 0 0 .004 6.378m-9.858 0a3.188 3.188 0 1 0 0-6.376 3.188 3.188 0 0 0 0 6.376m-9.855 0a3.188 3.188 0 1 0-.002-6.376 3.188 3.188 0 0 0 .002 6.376m-197.121-6.376a3.19 3.19 0 1 0-.002 6.378 3.19 3.19 0 0 0 .002-6.378m-29.569 0a3.188 3.188 0 1 0 3.19 3.187 3.188 3.188 0 0 0-3.19-3.187m-9.855 6.376a3.187 3.187 0 0 0 3.187-3.189 3.19 3.19 0 1 0-3.187 3.189m-9.856-6.376a3.188 3.188 0 1 0 .001 6.377 3.188 3.188 0 0 0-.001-6.377m-9.857 6.376a3.189 3.189 0 1 0 0-6.377 3.189 3.189 0 0 0 0 6.377m-9.856 0a3.188 3.188 0 1 0 0 0m-9.855 0a3.19 3.19 0 0 0 0-6.376 3.185 3.185 0 0 0-3.187 3.187 3.187 3.187 0 0 0 3.187 3.189m-9.857-6.376a3.187 3.187 0 1 0 3.191 3.187 3.19 3.19 0 0 0-3.191-3.187m-137.983 0a3.188 3.188 0 1 0 0 6.375 3.188 3.188 0 0 0 0-6.375m-9.856 6.376a3.19 3.19 0 1 0-.002-6.378 3.19 3.19 0 0 0 .002 6.378m-9.856 0a3.19 3.19 0 1 0-.002-6.378 3.19 3.19 0 0 0 .002 6.378m-9.856 0a3.188 3.188 0 1 0-.001-6.375 3.188 3.188 0 0 0 .001 6.375m-9.857 0a3.188 3.188 0 1 0 0-6.376 3.188 3.188 0 0 0 0 6.376m-9.855 0a3.188 3.188 0 1 0-.002-6.376 3.188 3.188 0 0 0 .002 6.376m-9.857 0a3.188 3.188 0 1 0 .003-6.377 3.188 3.188 0 0 0-.003 6.377m-9.855 0a3.188 3.188 0 1 0 0-6.377 3.188 3.188 0 0 0 0 6.377m512.514-9.856a3.189 3.189 0 1 0-.004-6.378 3.189 3.189 0 0 0 .004 6.378m-236.545-6.376a3.188 3.188 0 1 0-.003 6.377 3.188 3.188 0 0 0 .003-6.377m-9.858 6.367a3.178 3.178 0 0 0 3.178-3.18 3.178 3.178 0 1 0-3.178 3.18m-9.855-6.367a3.19 3.19 0 0 0-3.19 3.187 3.19 3.19 0 0 0 3.19 3.189 3.187 3.187 0 0 0 3.187-3.189 3.186 3.186 0 0 0-3.187-3.187m-9.856 0a3.188 3.188 0 1 0 .001 6.377 3.188 3.188 0 0 0-.001-6.377m-9.857 0a3.188 3.188 0 1 0 0 6.376 3.188 3.188 0 0 0 0-6.376m-9.856 0a3.188 3.188 0 1 0 .002 6.376 3.188 3.188 0 0 0-.002-6.376m-9.855 6.376a3.19 3.19 0 0 0 0-6.376 3.186 3.186 0 0 0-3.187 3.187 3.187 3.187 0 0 0 3.187 3.189m-9.857-6.376a3.187 3.187 0 1 0 3.191 3.187 3.19 3.19 0 0 0-3.191-3.187m-137.983 0a3.187 3.187 0 1 0-.001 6.375 3.187 3.187 0 0 0 .001-6.375m-9.856 6.376a3.19 3.19 0 1 0-.002-6.378 3.19 3.19 0 0 0 .002 6.378m-13.044-3.189a3.188 3.188 0 1 0 6.377.001 3.188 3.188 0 0 0-6.377-.001m-9.857 0a3.188 3.188 0 1 0 6.377.003 3.188 3.188 0 0 0-6.377-.003m-6.668-3.187a3.187 3.187 0 1 0 0 6.374 3.187 3.187 0 0 0 0-6.374m-9.855 0a3.188 3.188 0 1 0-.002 6.376 3.188 3.188 0 0 0 .002-6.376m-9.857 0a3.188 3.188 0 1 0 .002 6.376 3.188 3.188 0 0 0-.002-6.376m-9.855 0a3.187 3.187 0 1 0-.001 6.375 3.187 3.187 0 0 0 .001-6.375m-9.856 6.376a3.19 3.19 0 0 0 0-6.376 3.188 3.188 0 0 0 0 6.376m285.825-16.233a3.19 3.19 0 0 0 0 6.376 3.186 3.186 0 0 0 3.185-3.187 3.187 3.187 0 0 0-3.185-3.189m-9.858 0a3.188 3.188 0 0 0 0 6.376 3.19 3.19 0 1 0 0-6.376m-9.855 0a3.19 3.19 0 0 0-3.19 3.189 3.19 3.19 0 0 0 3.19 3.187 3.187 3.187 0 0 0 3.187-3.187 3.187 3.187 0 0 0-3.187-3.189m-9.856 0a3.188 3.188 0 1 0 .001 6.375 3.188 3.188 0 0 0-.001-6.375m-9.857 0a3.188 3.188 0 1 0 0 6.376 3.188 3.188 0 0 0 0-6.376m-9.856 0a3.189 3.189 0 1 0 .004 6.378 3.189 3.189 0 0 0-.004-6.378m-9.855 6.376a3.189 3.189 0 1 0-.001-6.377 3.189 3.189 0 0 0 .001 6.377m-137.984-6.376a3.189 3.189 0 1 0 0 6.374 3.189 3.189 0 0 0 0-6.374m-9.856 0a3.188 3.188 0 1 0 0 6.377 3.188 3.188 0 0 0 0-6.377m-9.856 6.376a3.188 3.188 0 1 0-.002-6.376 3.188 3.188 0 0 0 .002 6.376m-9.856-6.376a3.188 3.188 0 1 0 0 6.377 3.188 3.188 0 0 0 0-6.377m-9.857 6.376a3.187 3.187 0 1 0 .001-6.375 3.187 3.187 0 0 0-.001 6.375m-9.856 0a3.187 3.187 0 1 0 .001-6.375 3.187 3.187 0 0 0-.001 6.375m-9.855-6.376a3.189 3.189 0 1 0 0 6.374 3.189 3.189 0 0 0 0-6.374m-9.857 0a3.189 3.189 0 1 0 .004 6.378 3.189 3.189 0 0 0-.004-6.378m-9.855 0a3.188 3.188 0 1 0 0 6.377 3.188 3.188 0 0 0 0-6.377m-9.856 0a3.19 3.19 0 0 0 0 6.376 3.189 3.189 0 0 0 0-6.376m-9.856 0a3.188 3.188 0 1 0 0 6.376 3.188 3.188 0 0 0 0-6.376m561.792-3.479a3.188 3.188 0 1 0 0 0m-9.855 0a3.188 3.188 0 1 0-.002-6.376 3.188 3.188 0 0 0 .002 6.376m-88.704-6.375a3.187 3.187 0 1 0 0 6.376 3.187 3.187 0 0 0 0-6.376m-177.41 0a3.187 3.187 0 1 0 0 6.375 3.188 3.188 0 0 0 0-6.375m-9.855 0a3.189 3.189 0 0 0-3.19 3.186 3.19 3.19 0 0 0 3.19 3.189 3.186 3.186 0 0 0 3.187-3.189 3.185 3.185 0 0 0-3.187-3.186m-9.856 0a3.187 3.187 0 1 0 0 6.376 3.187 3.187 0 0 0 0-6.376m-9.857 0a3.187 3.187 0 1 0 0 6.375 3.188 3.188 0 1 0 0-6.375m-9.856 0a3.187 3.187 0 1 0 0 6.375 3.188 3.188 0 0 0 0-6.375m-9.855 6.375a3.188 3.188 0 1 0 0-6.377 3.188 3.188 0 0 0 0 6.377m-9.857-6.368a3.18 3.18 0 1 0 .003 6.36 3.18 3.18 0 0 0-.003-6.36m-128.127-.007a3.187 3.187 0 1 0 0 6.375 3.189 3.189 0 1 0 0-6.375m-9.856 6.375a3.188 3.188 0 1 0 0-6.377 3.188 3.188 0 0 0 0 6.377m-9.856-6.375a3.187 3.187 0 1 0 0 6.375 3.188 3.188 0 0 0 0-6.375m-9.856 0a3.187 3.187 0 1 0 0 6.375 3.188 3.188 0 0 0 0-6.375m-9.857 0a3.187 3.187 0 1 0 3.188 3.186 3.186 3.186 0 0 0-3.188-3.186m-9.856 0a3.188 3.188 0 1 0 .001 6.375 3.188 3.188 0 0 0-.001-6.375m-9.856 6.375a3.188 3.188 0 1 0 0-6.376 3.188 3.188 0 0 0 0 6.376m-9.856 0a3.189 3.189 0 1 0 0-6.377 3.189 3.189 0 0 0 0 6.377m-9.855 0a3.188 3.188 0 1 0 0-6.376 3.188 3.188 0 0 0 0 6.376m-9.856-6.375a3.187 3.187 0 1 0 3.188 3.186 3.187 3.187 0 0 0-3.188-3.186m-9.856 0a3.187 3.187 0 1 0 0 6.375 3.189 3.189 0 1 0 0-6.375m-9.856 1.341a1.845 1.845 0 0 0 0 3.69 1.845 1.845 0 0 0 0-3.69m561.793-5.17a2.84 2.84 0 0 0 2.839-2.839 2.84 2.84 0 1 0-2.839 2.839m-9.858.347a3.189 3.189 0 1 0 .002-6.378 3.189 3.189 0 0 0-.002 6.378m-9.853-6.209a3.022 3.022 0 1 0 0 0m-29.569 6.209a3.188 3.188 0 1 0 0-6.377 3.188 3.188 0 0 0 0 6.377m-19.713-6.376a3.188 3.188 0 0 0 0 6.376 3.188 3.188 0 1 0 0-6.376m-29.568.01a3.181 3.181 0 0 0-3.18 3.18 3.18 3.18 0 0 0 6.36 0 3.18 3.18 0 0 0-3.18-3.18m-157.695 0a3.178 3.178 0 1 0 0 6.358 3.177 3.177 0 0 0 3.177-3.178 3.177 3.177 0 0 0-3.177-3.18m-9.858 6.366a3.189 3.189 0 1 0 .002-6.378 3.189 3.189 0 0 0-.002 6.378m-9.855 0a3.188 3.188 0 1 0-.001-6.375 3.188 3.188 0 0 0 .001 6.375m-9.856 0a3.188 3.188 0 1 0 0-6.377 3.188 3.188 0 0 0 0 6.377m-9.857 0a3.188 3.188 0 1 0 .002-6.376 3.188 3.188 0 0 0-.002 6.376m-9.856 0a3.19 3.19 0 0 0 3.19-3.186 3.19 3.19 0 1 0-3.19 3.186m-9.855 0a3.188 3.188 0 1 0 0-6.377 3.188 3.188 0 0 0 0 6.377m-9.857 0a3.189 3.189 0 1 0 0-6.377 3.189 3.189 0 0 0 0 6.377m-147.839 0a3.188 3.188 0 1 0-.001-6.375 3.188 3.188 0 0 0 .001 6.375m-9.858 0a3.189 3.189 0 1 0 .002-6.378 3.189 3.189 0 0 0-.002 6.378m-9.855 0a3.187 3.187 0 1 0 0-6.376 3.188 3.188 0 0 0 0 6.376m-9.856 0a3.187 3.187 0 1 0 0-6.376 3.188 3.188 0 0 0 0 6.376m-9.856 0a3.188 3.188 0 1 0 0-6.376 3.188 3.188 0 0 0 0 6.376m-9.856 0a3.189 3.189 0 1 0 0-6.377 3.189 3.189 0 0 0 0 6.377m-9.855 0a3.188 3.188 0 1 0 0-6.376 3.188 3.188 0 0 0 0 6.376m-9.856 0a3.188 3.188 0 1 0 0-6.377 3.188 3.188 0 0 0 0 6.377m-9.856 0a3.188 3.188 0 1 0 0-6.376 3.188 3.188 0 0 0 0 6.376m-8.837-3.186a1.019 1.019 0 1 0-2.038-.002 1.019 1.019 0 0 0 2.038.002m509.328-9.858c0 1.196.971 2.164 2.166 2.164a2.164 2.164 0 1 0-2.166-2.164m-7.691 3.189a3.187 3.187 0 0 0 3.187-3.189 3.188 3.188 0 1 0-3.187 3.189m-9.856-6.376a3.188 3.188 0 1 0 .001 6.377 3.188 3.188 0 0 0-.001-6.377m-9.857 0a3.19 3.19 0 0 0-3.188 3.187 3.189 3.189 0 1 0 3.188-3.187m-19.711 0a3.186 3.186 0 0 0-3.187 3.187 3.187 3.187 0 1 0 6.375 0 3.188 3.188 0 0 0-3.188-3.187m-147.84 6.376a3.188 3.188 0 1 0 0-6.376 3.188 3.188 0 0 0 0 6.376m-9.855 0a3.187 3.187 0 0 0 3.185-3.189 3.188 3.188 0 1 0-3.185 3.189m-9.858 0a3.188 3.188 0 1 0 0-6.376 3.188 3.188 0 0 0 0 6.376m-9.855 0a3.188 3.188 0 1 0-.002-6.376 3.188 3.188 0 0 0 .002 6.376m-9.856-6.376a3.188 3.188 0 1 0 .001 6.377 3.188 3.188 0 0 0-.001-6.377m-9.857 6.376a3.187 3.187 0 0 0 3.187-3.189 3.187 3.187 0 1 0-6.375 0 3.188 3.188 0 0 0 3.188 3.189m-9.857-6.376a3.188 3.188 0 1 0 .003 6.375 3.188 3.188 0 0 0-.003-6.375m-9.854 0a3.186 3.186 0 0 0-3.187 3.187 3.187 3.187 0 1 0 6.375 0 3.188 3.188 0 0 0-3.188-3.187m-9.857 0a3.187 3.187 0 1 0 3.189 3.187 3.188 3.188 0 0 0-3.189-3.187m-167.552 6.376a3.188 3.188 0 1 0 0-6.376 3.188 3.188 0 0 0 0 6.376m-9.856 0a3.188 3.188 0 1 0 0-6.376 3.188 3.188 0 0 0 0 6.376m-9.856 0a3.188 3.188 0 1 0 0-6.377 3.188 3.188 0 0 0 0 6.377m-9.856 0a3.188 3.188 0 1 0 .002-6.376 3.188 3.188 0 0 0-.002 6.376m-9.855 0a3.188 3.188 0 1 0 0-6.377 3.188 3.188 0 0 0 0 6.377m-9.856 0a3.19 3.19 0 1 0-.002-6.378 3.19 3.19 0 0 0 .002 6.378m-9.856 0a3.188 3.188 0 1 0 0-6.377 3.188 3.188 0 0 0 0 6.377m492.8-9.857a3.186 3.186 0 0 0 3.187-3.187 3.187 3.187 0 1 0-6.375 0 3.188 3.188 0 0 0 3.188 3.187m-39.424-6.376a3.187 3.187 0 0 0-3.187 3.189 3.188 3.188 0 1 0 3.187-3.189m-137.984.009a3.18 3.18 0 0 0 0 6.358 3.176 3.176 0 0 0 3.177-3.178 3.178 3.178 0 0 0-3.177-3.18m-9.856 6.367a3.188 3.188 0 1 0 0-6.376 3.188 3.188 0 0 0 0 6.376m-9.855 0a3.185 3.185 0 0 0 3.185-3.187 3.187 3.187 0 1 0-6.375 0 3.188 3.188 0 0 0 3.19 3.187m-9.858 0a3.188 3.188 0 1 0 0-6.376 3.188 3.188 0 0 0 0 6.376m-13.045-3.187a3.19 3.19 0 0 0 6.377 0 3.188 3.188 0 1 0-6.377 0m-6.666 3.187a3.188 3.188 0 1 0 0-6.376 3.188 3.188 0 0 0 0 6.376m-9.857 0a3.186 3.186 0 0 0 3.187-3.187 3.187 3.187 0 1 0-6.375 0 3.187 3.187 0 0 0 3.188 3.187m-9.857 0a3.19 3.19 0 0 0 3.191-3.187 3.187 3.187 0 1 0-3.191 3.187m-9.854 0a3.188 3.188 0 1 0 0-6.376 3.188 3.188 0 0 0 0 6.376m-9.857 0a3.188 3.188 0 1 0 .002-6.376 3.188 3.188 0 0 0-.002 6.376m-9.856-6.367a3.18 3.18 0 1 0-.001 6.357 3.18 3.18 0 0 0 .001-6.357m-29.568-.009a3.188 3.188 0 1 0 0 6.377 3.188 3.188 0 0 0 0-6.377m-9.855 0a3.189 3.189 0 1 0 0 6.374 3.189 3.189 0 0 0 0-6.374m-118.273 6.367a3.179 3.179 0 1 0-3.179-3.178 3.178 3.178 0 0 0 3.179 3.178m-9.856.009a3.188 3.188 0 1 0 0-6.376 3.188 3.188 0 0 0 0 6.376m-9.856 0a3.187 3.187 0 1 0 .001-6.375 3.187 3.187 0 0 0-.001 6.375m-9.856 0a3.188 3.188 0 1 0 0-6.376 3.188 3.188 0 0 0 0 6.376m-9.855 0a3.188 3.188 0 1 0 0-6.376 3.188 3.188 0 0 0 0 6.376m-9.856 0a3.188 3.188 0 1 0 0-6.376 3.188 3.188 0 0 0 0 6.376m-9.856 0a3.188 3.188 0 1 0 0-6.376 3.188 3.188 0 0 0 0 6.376m515.001-13.044a2.49 2.49 0 1 0-2.488 2.49 2.488 2.488 0 0 0 2.488-2.49m-199.609 3.189a3.19 3.19 0 0 0 3.189-3.189 3.19 3.19 0 0 0-6.379 0 3.19 3.19 0 0 0 3.19 3.189m-9.856 0a3.188 3.188 0 1 0 0-6.376 3.188 3.188 0 0 0 0 6.376m-9.855-6.376a3.188 3.188 0 1 0-.003 6.377 3.188 3.188 0 0 0 .003-6.377m-9.858 6.376a3.188 3.188 0 1 0 0-6.376 3.188 3.188 0 0 0 0 6.376m-9.857 0a3.189 3.189 0 1 0 0-6.377 3.189 3.189 0 0 0 0 6.377m-9.854-6.376a3.188 3.188 0 1 0 .001 6.377 3.188 3.188 0 0 0-.001-6.377m-9.857 6.376a3.187 3.187 0 0 0 3.187-3.189 3.187 3.187 0 1 0-6.375 0 3.188 3.188 0 0 0 3.188 3.189m-9.857-6.376a3.187 3.187 0 1 0 3.191 3.187 3.19 3.19 0 0 0-3.191-3.187m-9.854 0a3.188 3.188 0 1 0-.003 6.375 3.188 3.188 0 0 0 .003-6.375m-9.857 6.376a3.188 3.188 0 1 0 .002-6.376 3.188 3.188 0 0 0-.002 6.376m-9.856-6.376a3.188 3.188 0 1 0 3.19 3.187 3.19 3.19 0 0 0-3.19-3.187m-9.854 0a3.19 3.19 0 0 0-3.191 3.187 3.188 3.188 0 1 0 3.191-3.187m-9.858 0a3.188 3.188 0 1 0 .001 6.377 3.188 3.188 0 0 0-.001-6.377m-9.856 0a3.187 3.187 0 1 0 0 6.376 3.188 3.188 0 0 0 0-6.376m-9.855 0a3.189 3.189 0 1 0 0 6.378 3.189 3.189 0 0 0 0-6.378m-9.856 0a3.187 3.187 0 1 0-.001 6.375 3.187 3.187 0 0 0 .001-6.375m-128.129 6.376a3.188 3.188 0 1 0 0-6.377 3.188 3.188 0 0 0 0 6.377m-9.856-6.376a3.188 3.188 0 1 0 0 6.376 3.188 3.188 0 0 0 0-6.376m-9.855 0a3.187 3.187 0 1 0-.001 6.375 3.187 3.187 0 0 0 .001-6.375m-13.045 3.187a3.188 3.188 0 1 0 6.376.002 3.188 3.188 0 0 0-6.376-.002m-16.524-2.164a2.164 2.164 0 1 0 0 4.328 2.164 2.164 0 0 0 0-4.328m515.69-7.691a3.177 3.177 0 1 0-6.357 0 3.18 3.18 0 0 0 3.179 3.179 3.177 3.177 0 0 0 3.178-3.179m-42.6 3.187a3.186 3.186 0 0 0 3.186-3.187 3.187 3.187 0 0 0-3.186-3.189 3.19 3.19 0 0 0-3.191 3.189 3.19 3.19 0 0 0 3.191 3.187m-9.857 0a3.187 3.187 0 1 0 .001-6.375 3.187 3.187 0 0 0-.001 6.375m-59.137-6.376a3.188 3.188 0 1 0 .002 6.376 3.188 3.188 0 0 0-.002-6.376m-9.855 1.93a1.259 1.259 0 1 0 .001 2.517 1.259 1.259 0 0 0-.001-2.517m-78.848 4.446a3.187 3.187 0 1 0 0-6.376 3.188 3.188 0 0 0 0 6.376m-9.855 0a3.185 3.185 0 0 0 3.185-3.187 3.186 3.186 0 0 0-3.185-3.189 3.189 3.189 0 1 0 0 6.376m-9.858 0a3.187 3.187 0 1 0-3.187-3.187 3.186 3.186 0 0 0 3.187 3.187m-13.045-3.187a3.189 3.189 0 1 0 6.377-.003 3.189 3.189 0 0 0-6.377.003m-6.666 3.187a3.187 3.187 0 1 0 0-6.376 3.189 3.189 0 1 0 0 6.376m-9.857 0a3.185 3.185 0 0 0 3.187-3.187 3.187 3.187 0 1 0-3.187 3.187m-9.857-6.376a3.187 3.187 0 0 0-3.186 3.189 3.19 3.19 0 0 0 6.377 0 3.19 3.19 0 0 0-3.191-3.189m-9.854 6.376a3.187 3.187 0 1 0 0-6.376 3.188 3.188 0 1 0 0 6.376m-9.857 0a3.188 3.188 0 1 0 .003-6.375 3.188 3.188 0 0 0-.003 6.375m-9.856 0a3.188 3.188 0 1 0 .003-6.377 3.188 3.188 0 0 0-.003 6.377m-9.854 0a3.188 3.188 0 0 0 0-6.376 3.189 3.189 0 0 0 0 6.376m-9.858 0a3.187 3.187 0 1 0-3.187-3.187 3.186 3.186 0 0 0 3.187 3.187m-9.856 0a3.186 3.186 0 0 0 3.187-3.187 3.187 3.187 0 1 0-6.375 0 3.187 3.187 0 0 0 3.188 3.187m-9.857 0a3.188 3.188 0 1 0 .003-6.377 3.188 3.188 0 0 0-.003 6.377m-9.854 0a3.186 3.186 0 0 0 3.187-3.187 3.19 3.19 0 0 0-6.377 0 3.188 3.188 0 0 0 3.19 3.187m-9.857-6.376a3.188 3.188 0 1 0 .001 6.375 3.188 3.188 0 0 0-.001-6.375m-177.408 0a3.188 3.188 0 1 0 0 6.376 3.188 3.188 0 0 0 0-6.376m522.368-3.479a3.189 3.189 0 1 0 .002-6.378 3.189 3.189 0 0 0-.002 6.378m-39.422 0a3.188 3.188 0 1 0-.004-6.376 3.188 3.188 0 0 0 .004 6.376m-9.857 0a3.188 3.188 0 1 0 0-6.377 3.188 3.188 0 0 0 0 6.377m-9.857-6.376a3.188 3.188 0 1 0 0 6.376 3.188 3.188 0 0 0 0-6.376m-49.28 0a3.188 3.188 0 1 0 .002 6.376 3.188 3.188 0 0 0-.002-6.376m-9.855 0a3.187 3.187 0 1 0 3.187 3.187 3.187 3.187 0 0 0-3.187-3.187m-59.135 0a3.188 3.188 0 1 0-.003 6.375 3.188 3.188 0 0 0 .003-6.375m-9.857 6.376a3.187 3.187 0 0 0 3.185-3.189 3.188 3.188 0 1 0-3.185 3.189m-9.858 0a3.189 3.189 0 1 0 .002-6.378 3.189 3.189 0 0 0-.002 6.378m-19.711 0a3.187 3.187 0 1 0 0-6.376 3.187 3.187 0 0 0-3.187 3.187 3.187 3.187 0 0 0 3.187 3.189m-9.857 0a3.188 3.188 0 1 0 .002-6.376 3.188 3.188 0 0 0-.002 6.376m-9.854 0a3.188 3.188 0 1 0 0-6.377 3.188 3.188 0 0 0 0 6.377m-9.857 0a3.186 3.186 0 0 0 3.187-3.189 3.187 3.187 0 1 0-6.375 0 3.187 3.187 0 0 0 3.188 3.189m-9.857 0a3.19 3.19 0 0 0 3.191-3.189 3.19 3.19 0 0 0-3.191-3.187 3.186 3.186 0 0 0-3.186 3.187 3.187 3.187 0 0 0 3.186 3.189m-9.854-6.376a3.188 3.188 0 1 0-.003 6.375 3.188 3.188 0 0 0 .003-6.375m-9.857 6.376a3.189 3.189 0 1 0 0-6.377 3.189 3.189 0 0 0 0 6.377m-9.856 0a3.188 3.188 0 1 0 0-6.376 3.188 3.188 0 0 0 0 6.376m-9.854 0a3.189 3.189 0 1 0-.004-6.378 3.189 3.189 0 0 0 .004 6.378m-9.858 0a3.187 3.187 0 1 0 0-6.376 3.187 3.187 0 0 0-3.187 3.187 3.187 3.187 0 0 0 3.187 3.189m-9.856 0a3.187 3.187 0 0 0 3.187-3.189 3.187 3.187 0 1 0-6.375 0 3.188 3.188 0 0 0 3.188 3.189m-9.857-6.376a3.188 3.188 0 1 0 .003 6.377 3.188 3.188 0 0 0-.003-6.377m-9.854 0a3.19 3.19 0 1 0-.002 6.378 3.19 3.19 0 0 0 .002-6.378m-9.857 6.376a3.188 3.188 0 1 0 0-6.376 3.188 3.188 0 0 0 0 6.376m-187.264-5.024a1.835 1.835 0 1 0 0 3.67 1.835 1.835 0 0 0 0-3.67m-9.856-1.352a3.187 3.187 0 1 0-.001 6.375 3.187 3.187 0 0 0 .001-6.375m-9.856 0a3.187 3.187 0 1 0-.001 6.375 3.187 3.187 0 0 0 .001-6.375m512.514-3.481a3.188 3.188 0 1 0-.003-6.375 3.188 3.188 0 0 0 .003 6.375m-9.857-6.376a3.187 3.187 0 0 0-3.187 3.189 3.188 3.188 0 1 0 3.187-3.189m-9.857 6.376a3.188 3.188 0 1 0-.001-6.377 3.188 3.188 0 0 0 .001 6.377m-9.856-6.376a3.187 3.187 0 0 0-3.187 3.189 3.19 3.19 0 0 0 6.377 0 3.19 3.19 0 0 0-3.19-3.189m-19.713 0a3.187 3.187 0 0 0-3.185 3.189 3.188 3.188 0 1 0 3.185-3.189m-9.855 0a3.188 3.188 0 1 0 0 6.376 3.188 3.188 0 0 0 0-6.376m-9.856 6.376a3.188 3.188 0 1 0 .003-6.377 3.188 3.188 0 0 0-.003 6.377m-9.855 0a3.187 3.187 0 1 0 0-6.374 3.187 3.187 0 0 0 0 6.374m-49.279-6.376a3.188 3.188 0 1 0-.004 6.376 3.188 3.188 0 0 0 .004-6.376m-9.856 6.376a3.187 3.187 0 1 0-3.191-3.187 3.19 3.19 0 0 0 3.191 3.187m-9.857 0a3.186 3.186 0 0 0 3.185-3.187 3.187 3.187 0 1 0-3.185 3.187m-9.858 0a3.188 3.188 0 1 0 .003-6.377 3.188 3.188 0 0 0-.003 6.377m-9.853 0a3.185 3.185 0 0 0 3.185-3.187 3.187 3.187 0 0 0-3.185-3.189 3.191 3.191 0 0 0-3.192 3.189 3.19 3.19 0 0 0 3.192 3.187m-9.858 0a3.188 3.188 0 1 0 0-6.376 3.188 3.188 0 0 0 0 6.376m-9.857 0a3.188 3.188 0 1 0 .003-6.375 3.188 3.188 0 0 0-.003 6.375m-9.854 0a3.19 3.19 0 0 0 3.188-3.187 3.19 3.19 0 0 0-6.377 0 3.188 3.188 0 0 0 3.189 3.187m-9.857 0a3.186 3.186 0 0 0 3.187-3.187 3.187 3.187 0 1 0-6.375 0 3.187 3.187 0 0 0 3.188 3.187m-9.857 0a3.188 3.188 0 1 0 .002-6.376 3.188 3.188 0 0 0-.002 6.376m-9.856 0a3.19 3.19 0 0 0 3.19-3.187 3.188 3.188 0 1 0-3.19 3.187m-9.855 0a3.188 3.188 0 1 0 .002-6.376 3.188 3.188 0 0 0-.002 6.376m-9.856 0a3.187 3.187 0 1 0 .001-6.375 3.187 3.187 0 0 0-.001 6.375m-9.856 0a3.189 3.189 0 1 0 0-6.378 3.189 3.189 0 0 0 0 6.378m-9.856 0a3.188 3.188 0 1 0 0-6.376 3.188 3.188 0 0 0 0 6.376m-9.856 0a3.188 3.188 0 1 0-.001-6.377 3.188 3.188 0 0 0 .001 6.377m-9.857 0a3.19 3.19 0 1 0 .002-6.378 3.19 3.19 0 0 0-.002 6.378m-9.854 0a3.188 3.188 0 1 0-3.19-3.187 3.19 3.19 0 0 0 3.19 3.187m-9.857 0a3.187 3.187 0 1 0 .001-6.375 3.187 3.187 0 0 0-.001 6.375m-154.517-3.187a3.18 3.18 0 1 0-6.361 0 3.18 3.18 0 0 0 6.361 0m-32.747-3.189a3.188 3.188 0 1 0 0 6.376 3.188 3.188 0 0 0 0-6.376m-29.569 0a3.19 3.19 0 1 0 .002 6.378 3.19 3.19 0 0 0-.002-6.378m-9.856 0a3.19 3.19 0 1 0 .002 6.378 3.19 3.19 0 0 0-.002-6.378m571.649-3.479a3.187 3.187 0 1 0 0-6.376 3.187 3.187 0 0 0-3.187 3.187 3.187 3.187 0 0 0 3.187 3.189m-9.855-.01a3.18 3.18 0 0 0 0-6.357 3.181 3.181 0 0 0-3.182 3.178 3.182 3.182 0 0 0 3.182 3.179m-9.856.01a3.187 3.187 0 0 0 3.186-3.189 3.186 3.186 0 0 0-3.186-3.187 3.19 3.19 0 0 0-3.191 3.187 3.19 3.19 0 0 0 3.191 3.189m-19.714 0a3.189 3.189 0 1 0 0-6.377 3.189 3.189 0 0 0 0 6.377m-9.854 0a3.188 3.188 0 1 0 0-6.377 3.188 3.188 0 0 0 0 6.377m-9.857 0a3.187 3.187 0 0 0 3.187-3.189 3.187 3.187 0 1 0-6.375 0 3.188 3.188 0 0 0 3.188 3.189m-9.856 0a3.19 3.19 0 0 0 3.19-3.189 3.19 3.19 0 0 0-6.377 0 3.186 3.186 0 0 0 3.187 3.189m-9.855-6.376a3.188 3.188 0 1 0-.003 6.377 3.188 3.188 0 0 0 .003-6.377m-9.858 6.376a3.189 3.189 0 1 0 0-6.376 3.186 3.186 0 0 0-3.185 3.187 3.187 3.187 0 0 0 3.185 3.189m-9.855 0a3.188 3.188 0 1 0-.001-6.375 3.188 3.188 0 0 0 .001 6.375m-9.858 0a3.19 3.19 0 0 0 3.192-3.189 3.19 3.19 0 0 0-3.192-3.187 3.187 3.187 0 0 0 0 6.376m-19.711-6.376a3.187 3.187 0 0 0-3.187 3.187 3.187 3.187 0 1 0 6.375 0 3.187 3.187 0 0 0-3.188-3.187m-39.423.009a3.18 3.18 0 0 0-3.18 3.178 3.178 3.178 0 1 0 3.18-3.178m-9.854 6.367a3.188 3.188 0 1 0-.004-6.376 3.188 3.188 0 0 0 .004 6.376m-9.857 0a3.187 3.187 0 0 0 3.185-3.189 3.188 3.188 0 1 0-3.185 3.189m-9.858 0a3.187 3.187 0 1 0 0-6.376 3.187 3.187 0 0 0 0 6.376m-9.855 0a3.188 3.188 0 0 0 0-6.376 3.19 3.19 0 0 0-3.19 3.187 3.19 3.19 0 0 0 3.19 3.189m-19.713 0a3.186 3.186 0 0 0 3.187-3.189 3.188 3.188 0 1 0-3.187 3.189m-9.856 0a3.19 3.19 0 0 0 3.19-3.189 3.19 3.19 0 0 0-6.377 0 3.188 3.188 0 0 0 3.187 3.189m-9.855 0a3.186 3.186 0 0 0 3.187-3.189 3.188 3.188 0 1 0-3.187 3.189m-9.857 0a3.189 3.189 0 1 0 0-6.377 3.189 3.189 0 0 0 0 6.377m-9.856 0a3.19 3.19 0 0 0 3.19-3.189 3.19 3.19 0 0 0-6.377 0 3.186 3.186 0 0 0 3.187 3.189m-9.855 0a3.189 3.189 0 1 0 0-6.377 3.189 3.189 0 0 0 0 6.377m-9.856 0a3.188 3.188 0 1 0 0-6.376 3.188 3.188 0 0 0 0 6.376m-9.856 0a3.189 3.189 0 1 0 0-6.374 3.189 3.189 0 0 0 0 6.374m-9.856 0a3.19 3.19 0 1 0-.002-6.378 3.19 3.19 0 0 0 .002 6.378m-9.856 0a3.187 3.187 0 0 0 3.187-3.189 3.187 3.187 0 1 0-6.375 0 3.188 3.188 0 0 0 3.188 3.189m-9.857 0a3.188 3.188 0 1 0 0-6.376 3.188 3.188 0 0 0 0 6.376m-9.854 0a3.188 3.188 0 1 0-.002-6.376 3.188 3.188 0 0 0 .002 6.376m-9.857 0a3.188 3.188 0 1 0 0-6.376 3.188 3.188 0 0 0 0 6.376m-216.833 0a3.188 3.188 0 1 0 0-6.376 3.188 3.188 0 0 0 0 6.376m-9.856 0a3.187 3.187 0 1 0 0-6.376 3.187 3.187 0 1 0 0 6.376m561.792-9.856a3.189 3.189 0 1 0 0-6.377 3.189 3.189 0 0 0 0 6.377m-9.854 0a3.189 3.189 0 1 0-.005-6.377 3.189 3.189 0 0 0 .005 6.377m-9.857 0a3.187 3.187 0 0 0 3.187-3.189 3.188 3.188 0 1 0-3.187 3.189m-9.857 0a3.188 3.188 0 1 0-.001-6.375 3.188 3.188 0 0 0 .001 6.375m-9.854 0a3.19 3.19 0 0 0 3.188-3.189 3.19 3.19 0 0 0-6.377 0 3.189 3.189 0 0 0 3.189 3.189m-9.857 0a3.188 3.188 0 1 0-.001-6.375 3.188 3.188 0 0 0 .001 6.375m-9.856 0a3.19 3.19 0 0 0 0-6.376 3.186 3.186 0 0 0-3.187 3.187 3.187 3.187 0 0 0 3.187 3.189m-9.857 0a3.189 3.189 0 1 0 0-6.374 3.189 3.189 0 0 0 0 6.374m-9.856 0a3.188 3.188 0 1 0 0 0m-9.855 0a3.188 3.188 0 1 0-.002-6.376 3.188 3.188 0 0 0 .002 6.376m-9.858 0a3.191 3.191 0 0 0 3.192-3.189 3.19 3.19 0 0 0-3.192-3.187 3.186 3.186 0 0 0-3.185 3.187 3.187 3.187 0 0 0 3.185 3.189m-9.853 0a3.188 3.188 0 1 0-.002-6.376 3.188 3.188 0 0 0 .002 6.376m-9.858 0a3.188 3.188 0 1 0 0-6.376 3.188 3.188 0 0 0 0 6.376m-9.855-6.376a3.188 3.188 0 1 0 0 6.376 3.188 3.188 0 0 0 0-6.376m-9.855 0a3.188 3.188 0 1 0-.003 6.377 3.188 3.188 0 0 0 .003-6.377m-9.856 0a3.188 3.188 0 1 0-.003 6.375 3.188 3.188 0 0 0 .003-6.375m-9.857 6.376a3.188 3.188 0 1 0-.001-6.375 3.188 3.188 0 0 0 .001 6.375m-19.711 0a3.187 3.187 0 0 0 3.185-3.189 3.186 3.186 0 0 0-3.185-3.187 3.19 3.19 0 0 0-3.192 3.187 3.191 3.191 0 0 0 3.192 3.189m-9.858 0a3.188 3.188 0 1 0 0-6.376 3.188 3.188 0 0 0 0 6.376m-9.855 0a3.188 3.188 0 1 0-.002-6.376 3.188 3.188 0 0 0 .002 6.376m-9.856 0a3.188 3.188 0 1 0 0-6.376 3.188 3.188 0 0 0 0 6.376m-9.857 0a3.187 3.187 0 0 0 3.187-3.189 3.188 3.188 0 1 0-3.187 3.189m-9.856 0a3.19 3.19 0 0 0 0-6.376 3.188 3.188 0 1 0 0 6.376m-9.855 0a3.188 3.188 0 1 0-.002-6.376 3.188 3.188 0 0 0 .002 6.376m-9.857 0a3.188 3.188 0 1 0 .002-6.376 3.188 3.188 0 0 0-.002 6.376m-9.856 0a3.19 3.19 0 0 0 0-6.376 3.186 3.186 0 0 0-3.187 3.187 3.187 3.187 0 0 0 3.187 3.189m-9.857 0a3.191 3.191 0 0 0 3.191-3.189 3.19 3.19 0 0 0-6.379 0 3.188 3.188 0 0 0 3.188 3.189m-9.854 0a3.188 3.188 0 1 0 0-6.377 3.188 3.188 0 0 0 0 6.377m-9.856 0a3.187 3.187 0 1 0-.003-6.375 3.187 3.187 0 0 0 .003 6.375m-9.858 0a3.19 3.19 0 1 0 0 0m-9.854 0a3.188 3.188 0 0 0 0-6.376 3.19 3.19 0 1 0 0 6.376m-9.857 0a3.188 3.188 0 1 0 0-6.377 3.188 3.188 0 0 0 0 6.377m-9.856 0a3.188 3.188 0 1 0 .002-6.376 3.188 3.188 0 0 0-.002 6.376m-177.408-6.376a3.187 3.187 0 1 0-.001 6.375 3.187 3.187 0 0 0 .001-6.375m-49.281 6.376a3.189 3.189 0 1 0 0-6.377 3.189 3.189 0 0 0 0 6.377m-9.855 0a3.187 3.187 0 0 0 3.187-3.189 3.188 3.188 0 1 0-3.187 3.189m-9.857-6.376a3.188 3.188 0 1 0 .002 6.376 3.188 3.188 0 0 0-.002-6.376m581.506-3.48a3.188 3.188 0 1 0 0-6.376 3.188 3.188 0 0 0 0 6.376m-9.857 0a3.187 3.187 0 0 0 3.187-3.189 3.187 3.187 0 1 0-6.375 0 3.19 3.19 0 0 0 3.188 3.189m-9.856 0a3.19 3.19 0 1 0-.002-6.378 3.19 3.19 0 0 0 .002 6.378m-9.855 0a3.187 3.187 0 0 0 3.187-3.189 3.187 3.187 0 0 0-3.187-3.188 3.19 3.19 0 0 0 0 6.377m-9.857 0a3.188 3.188 0 0 0 3.187-3.189 3.187 3.187 0 1 0-6.375 0 3.19 3.19 0 0 0 3.188 3.189m-9.856 0a3.19 3.19 0 0 0 3.19-3.189 3.19 3.19 0 0 0-3.19-3.188 3.187 3.187 0 0 0-3.187 3.188 3.187 3.187 0 0 0 3.187 3.189m-9.855 0a3.189 3.189 0 1 0-.004-6.378 3.189 3.189 0 0 0 .004 6.378m-9.856 0a3.19 3.19 0 0 0 0-6.377 3.187 3.187 0 0 0-3.187 3.188 3.187 3.187 0 0 0 3.187 3.189m-9.857 0a3.19 3.19 0 1 0-3.188-3.189 3.188 3.188 0 0 0 3.188 3.189m-9.858 0a3.191 3.191 0 0 0 3.192-3.189 3.188 3.188 0 1 0-3.192 3.189m-9.853 0a3.188 3.188 0 1 0-.002-6.376 3.188 3.188 0 0 0 .002 6.376m-9.858 0a3.188 3.188 0 1 0 0-6.377 3.187 3.187 0 0 0-3.185 3.188 3.187 3.187 0 0 0 3.185 3.189m-9.855 0a3.19 3.19 0 1 0-3.188-3.189 3.19 3.19 0 0 0 3.188 3.189m-9.856 0a3.188 3.188 0 1 0 0-6.376 3.188 3.188 0 0 0 0 6.376m-9.855 0a3.188 3.188 0 1 0-.002-6.376 3.188 3.188 0 0 0 .002 6.376m-9.857 0a3.19 3.19 0 1 0 0-6.379 3.19 3.19 0 0 0 0 6.379m-9.854 0a3.189 3.189 0 1 0-.005-6.377 3.189 3.189 0 0 0 .005 6.377m-9.857 0a3.188 3.188 0 0 0 3.187-3.189 3.187 3.187 0 1 0-6.375 0 3.188 3.188 0 0 0 3.188 3.189m-9.858 0a3.188 3.188 0 1 0 0-6.376 3.188 3.188 0 0 0 0 6.376m-9.853 0a3.188 3.188 0 1 0-.007-6.377 3.188 3.188 0 0 0 .007 6.377m-9.858 0a3.188 3.188 0 1 0 0-6.376 3.188 3.188 0 0 0 0 6.376m-9.855 0a3.187 3.187 0 0 0 3.185-3.189 3.186 3.186 0 1 0-6.375 0 3.19 3.19 0 0 0 3.19 3.189m-9.858 0a3.19 3.19 0 0 0 3.19-3.189 3.187 3.187 0 1 0-6.377 0 3.188 3.188 0 0 0 3.187 3.189m-9.855-6.368a3.178 3.178 0 1 0 0 6.357 3.178 3.178 0 0 0 0-6.357m-19.713 6.368a3.189 3.189 0 1 0 0-6.377 3.189 3.189 0 0 0 0 6.377m-13.033-3.189a3.178 3.178 0 1 0 6.357 0 3.178 3.178 0 1 0-6.357 0m-16.535 3.189a3.19 3.19 0 1 0 0-6.379 3.19 3.19 0 0 0 0 6.379m-9.854 0a3.19 3.19 0 0 0 0-6.377 3.19 3.19 0 0 0 0 6.377m-9.856 0a3.187 3.187 0 0 0 3.186-3.189 3.187 3.187 0 1 0-6.375 0 3.189 3.189 0 0 0 3.189 3.189m-9.858 0a3.188 3.188 0 1 0 0-6.377 3.188 3.188 0 0 0 0 6.377m-9.856 0a3.19 3.19 0 1 0 0-6.379 3.19 3.19 0 0 0 0 6.379m-9.855 0a3.188 3.188 0 1 0 0-6.377 3.188 3.188 0 0 0 0 6.377m-197.12 0a3.19 3.19 0 1 0-.002-6.378 3.19 3.19 0 0 0 .002 6.378m-9.856 0a3.188 3.188 0 1 0 0-6.377 3.188 3.188 0 0 0 0 6.377m-9.857 0a3.188 3.188 0 1 0 0-6.377 3.188 3.188 0 0 0 0 6.377m-9.856 0a3.188 3.188 0 1 0 0-6.376 3.188 3.188 0 0 0 0 6.376m-9.856 0a3.19 3.19 0 1 0 0-6.379 3.19 3.19 0 0 0 0 6.379m-9.856 0a3.188 3.188 0 1 0 0-6.377 3.188 3.188 0 0 0 0 6.377m-9.856 0a3.188 3.188 0 1 0 0-6.377 3.188 3.188 0 0 0 0 6.377m-9.856-6.377a3.188 3.188 0 1 0 .002 6.376 3.188 3.188 0 0 0-.002-6.376m-9.856 0a3.189 3.189 0 1 0 .002 6.378 3.189 3.189 0 0 0-.002-6.378m638.652-6.667a1.989 1.989 0 1 0 3.977-.001 1.989 1.989 0 0 0-3.977.001m-7.865-3.179a3.178 3.178 0 1 0-.004 6.356 3.178 3.178 0 0 0 .004-6.356m-39.426 6.366a3.186 3.186 0 0 0 3.187-3.187 3.186 3.186 0 1 0-6.375 0 3.188 3.188 0 0 0 3.188 3.187m-9.856 0a3.186 3.186 0 0 0 3.186-3.187 3.187 3.187 0 1 0-6.375 0 3.188 3.188 0 0 0 3.189 3.187m-9.857 0a3.188 3.188 0 1 0 .003-6.375 3.188 3.188 0 0 0-.003 6.375m-9.855 0a3.187 3.187 0 0 0 3.187-3.187 3.187 3.187 0 1 0-6.375 0 3.188 3.188 0 0 0 3.188 3.187m-9.856 0a3.188 3.188 0 1 0 0-6.376 3.188 3.188 0 0 0 0 6.376m-9.857 0a3.188 3.188 0 1 0 .002-6.376 3.188 3.188 0 0 0-.002 6.376m-9.854 0a3.188 3.188 0 1 0 0-6.376 3.188 3.188 0 0 0 0 6.376m-9.857 0a3.187 3.187 0 0 0 0-6.376 3.187 3.187 0 1 0 0 6.376m-9.858 0a3.19 3.19 0 0 0 3.192-3.187 3.19 3.19 0 0 0-3.192-3.189 3.187 3.187 0 0 0-3.185 3.189 3.186 3.186 0 0 0 3.185 3.187m-9.853 0a3.188 3.188 0 1 0-.003-6.377 3.188 3.188 0 0 0 .003 6.377m-9.858 0a3.187 3.187 0 1 0 .002-6.378 3.187 3.187 0 0 0-.002 6.378m-9.855 0a3.187 3.187 0 0 0 0-6.376 3.187 3.187 0 1 0 0 6.376m-9.858 0a3.188 3.188 0 1 0 .003-6.377 3.188 3.188 0 0 0-.003 6.377m-9.853 0a3.187 3.187 0 0 0 0-6.376 3.187 3.187 0 1 0 0 6.376m-9.857 0a3.187 3.187 0 0 0 3.187-3.187 3.187 3.187 0 1 0-6.375 0 3.187 3.187 0 0 0 3.188 3.187m-9.858 0a3.188 3.188 0 1 0 .003-6.377 3.188 3.188 0 0 0-.003 6.377m-9.853 0a3.187 3.187 0 0 0 3.187-3.187 3.189 3.189 0 1 0-3.187 3.187m-9.858 0a3.187 3.187 0 1 0-3.187-3.187 3.187 3.187 0 0 0 3.187 3.187m-9.855 0a3.186 3.186 0 0 0 3.185-3.187 3.187 3.187 0 1 0-6.375 0 3.188 3.188 0 0 0 3.19 3.187m-9.858 0a3.188 3.188 0 1 0 .003-6.377 3.188 3.188 0 0 0-.003 6.377m-9.853 0a3.185 3.185 0 0 0 3.185-3.187 3.186 3.186 0 0 0-3.185-3.189 3.189 3.189 0 1 0 0 6.376m-9.858-5.519a2.33 2.33 0 1 0 .002 4.662 2.33 2.33 0 0 0-.002-4.662m-68.992 5.519a3.19 3.19 0 1 0 .002-6.378 3.19 3.19 0 0 0-.002 6.378m-9.854 0a3.186 3.186 0 0 0 3.186-3.187 3.19 3.19 0 0 0-6.377 0 3.19 3.19 0 0 0 3.191 3.187m-9.858 0a3.187 3.187 0 1 0 .001-6.375 3.187 3.187 0 0 0-.001 6.375m-9.856 0a3.187 3.187 0 0 0 3.187-3.187 3.187 3.187 0 1 0-6.375 0 3.187 3.187 0 0 0 3.188 3.187m-184.085-3.187a3.179 3.179 0 1 0-6.357 0 3.179 3.179 0 0 0 6.357 0m-13.035 3.187a3.188 3.188 0 1 0 0-6.376 3.188 3.188 0 0 0 0 6.376m-9.856 0a3.187 3.187 0 1 0 .001-6.375 3.187 3.187 0 0 0-.001 6.375m-9.856 0a3.187 3.187 0 1 0 .001-6.375 3.187 3.187 0 0 0-.001 6.375m-9.857 0a3.188 3.188 0 1 0 .003-6.375 3.188 3.188 0 0 0-.003 6.375m-9.855 0a3.187 3.187 0 0 0 3.187-3.187 3.187 3.187 0 1 0-6.376 0 3.188 3.188 0 0 0 3.189 3.187m-9.857 0a3.188 3.188 0 1 0 .003-6.375 3.188 3.188 0 0 0-.003 6.375m-9.855 0a3.187 3.187 0 0 0 3.187-3.187 3.187 3.187 0 1 0-6.376 0 3.188 3.188 0 0 0 3.189 3.187m-9.856 0a3.188 3.188 0 1 0 0-6.376 3.188 3.188 0 0 0 0 6.376m-9.856 0a3.188 3.188 0 1 0 .002-6.376 3.188 3.188 0 0 0-.002 6.376m-9.856 0a3.188 3.188 0 1 0 0-6.376 3.188 3.188 0 0 0 0 6.376m-9.857-6.376a3.188 3.188 0 1 0 .001 6.375 3.188 3.188 0 0 0-.001-6.375m660.355-3.479a3.189 3.189 0 0 0 0-6.376 3.188 3.188 0 1 0 0 6.376m-39.424 0a3.187 3.187 0 0 0 3.185-3.189 3.188 3.188 0 1 0-3.185 3.189m-19.713 0a3.187 3.187 0 0 0 3.187-3.189 3.19 3.19 0 1 0-3.187 3.189m-9.856 0a3.187 3.187 0 1 0-.003-6.375 3.187 3.187 0 0 0 .003 6.375m-9.857 0a3.189 3.189 0 1 0 0-6.377 3.189 3.189 0 0 0 0 6.377m-9.855 0a3.189 3.189 0 1 0-.004-6.378 3.189 3.189 0 0 0 .004 6.378m-9.856 0a3.19 3.19 0 0 0 0-6.376 3.185 3.185 0 0 0-3.187 3.187 3.187 3.187 0 0 0 3.187 3.189m-9.857 0a3.188 3.188 0 1 0-.001-6.375 3.188 3.188 0 0 0 .001 6.375m-9.854 0a3.189 3.189 0 1 0-.001-6.375 3.189 3.189 0 0 0 .001 6.375m-9.857 0a3.188 3.188 0 1 0-.002-6.376 3.188 3.188 0 0 0 .002 6.376m-9.858 0a3.188 3.188 0 1 0 0 0m-9.855 0a3.188 3.188 0 1 0 .002-6.376 3.188 3.188 0 0 0-.002 6.376m-9.856 0a3.188 3.188 0 1 0 0-6.376 3.188 3.188 0 0 0 0 6.376m-9.855 0a3.188 3.188 0 1 0-.002-6.376 3.188 3.188 0 0 0 .002 6.376m-9.858 0a3.188 3.188 0 1 0 0-6.376 3.188 3.188 0 0 0 0 6.376m-9.853 0a3.188 3.188 0 1 0 0-6.376 3.189 3.189 0 1 0 0 6.376m-9.857 0a3.188 3.188 0 1 0-.001-6.375 3.188 3.188 0 0 0 .001 6.375m-9.858 0a3.188 3.188 0 1 0 0-6.376 3.188 3.188 0 0 0 0 6.376m-9.855 0a3.188 3.188 0 1 0 0-6.376 3.187 3.187 0 1 0 0 6.376m-19.711 0a3.187 3.187 0 0 0 3.185-3.189 3.188 3.188 0 1 0-3.185 3.189m-9.858 0a3.188 3.188 0 1 0 0 0m-9.853 0a3.187 3.187 0 0 0 3.185-3.189 3.19 3.19 0 0 0-6.377 0 3.191 3.191 0 0 0 3.192 3.189m-9.858 0a3.19 3.19 0 0 0 0-6.376 3.188 3.188 0 1 0 0 6.376m-9.857 0a3.189 3.189 0 1 0 0-6.377 3.189 3.189 0 0 0 0 6.377m-9.854 0a3.189 3.189 0 1 0-.001-6.375 3.189 3.189 0 0 0 .001 6.375m-9.857-.01a3.18 3.18 0 1 0 0-6.36 3.18 3.18 0 0 0 0 6.36m-8.824-3.179c0-.569-.461-1.032-1.033-1.032-.569 0-1.034.463-1.034 1.032a1.035 1.035 0 0 0 2.067 0m-60.168 3.189a3.188 3.188 0 1 0-.001-6.375 3.188 3.188 0 0 0 .001 6.375m-9.857 0a3.188 3.188 0 1 0 0 0m-187.263 0a3.188 3.188 0 1 0-.002-6.376 3.188 3.188 0 0 0 .002 6.376m-9.856 0a3.19 3.19 0 1 0-.002-6.378 3.19 3.19 0 0 0 .002 6.378m-9.857 0a3.188 3.188 0 1 0 0-6.376 3.188 3.188 0 0 0 0 6.376m-9.856 0a3.188 3.188 0 1 0 0-6.377 3.188 3.188 0 0 0 0 6.377m-9.856 0a3.188 3.188 0 1 0 0-6.376 3.188 3.188 0 0 0 0 6.376m-9.856 0a3.188 3.188 0 1 0 0-6.377 3.188 3.188 0 0 0 0 6.377m-9.856 0a3.188 3.188 0 1 0 0-6.377 3.188 3.188 0 0 0 0 6.377m-9.855 0a3.188 3.188 0 1 0-.002-6.376 3.188 3.188 0 0 0 .002 6.376m-9.856 0a3.19 3.19 0 1 0-.002-6.378 3.19 3.19 0 0 0 .002 6.378m-9.857 0a3.188 3.188 0 1 0 0-6.376 3.187 3.187 0 1 0 0 6.376m-9.856 0a3.188 3.188 0 1 0 .003-6.377 3.188 3.188 0 0 0-.003 6.377m630.786-9.856a3.189 3.189 0 1 0-.002-6.378 3.189 3.189 0 0 0 .002 6.378m-9.855 0a3.186 3.186 0 0 0 3.185-3.188 3.186 3.186 0 0 0-3.185-3.189 3.19 3.19 0 0 0-3.192 3.189c0 1.76 1.43 3.188 3.192 3.188m-9.858-6.368a3.18 3.18 0 1 0 .001 6.357 3.18 3.18 0 0 0-.001-6.357m-9.857 6.368a3.188 3.188 0 1 0 .001-6.377 3.188 3.188 0 0 0-.001 6.377m-9.854 0a3.187 3.187 0 0 0 3.186-3.188 3.187 3.187 0 0 0-3.186-3.189 3.19 3.19 0 0 0-3.191 3.189 3.19 3.19 0 0 0 3.191 3.188m-9.857 0a3.188 3.188 0 0 0 3.188-3.188 3.187 3.187 0 1 0-6.375 0 3.187 3.187 0 0 0 3.187 3.188m-9.857 0a3.19 3.19 0 1 0 0-6.378 3.19 3.19 0 0 0 0 6.378m-9.854 0a3.19 3.19 0 1 0-3.189-3.188 3.188 3.188 0 0 0 3.189 3.188m-9.857 0a3.187 3.187 0 0 0 3.187-3.188 3.187 3.187 0 1 0-6.375 0 3.189 3.189 0 0 0 3.188 3.188m-9.858 0a3.19 3.19 0 1 0 0-6.377 3.186 3.186 0 0 0-3.185 3.189 3.186 3.186 0 0 0 3.185 3.188m-9.855 0a3.19 3.19 0 0 0 0-6.377 3.188 3.188 0 0 0 0 6.377m-9.856 0a3.19 3.19 0 1 0 .001-6.379 3.19 3.19 0 0 0-.001 6.379m-9.855 0a3.188 3.188 0 1 0-.002-6.376 3.188 3.188 0 0 0 .002 6.376m-9.858 0a3.19 3.19 0 1 0 .001-6.379 3.19 3.19 0 0 0-.001 6.379m-9.853 0a3.188 3.188 0 1 0-.002-6.376 3.188 3.188 0 0 0 .002 6.376m-9.858 0a3.188 3.188 0 0 0 3.188-3.188 3.187 3.187 0 1 0-6.375 0 3.187 3.187 0 0 0 3.187 3.188m-9.857 0a3.19 3.19 0 1 0 0 0m-9.853 0a3.187 3.187 0 0 0 3.187-3.188 3.189 3.189 0 1 0-3.187 3.188m-9.858 0a3.188 3.188 0 0 0 3.188-3.188 3.187 3.187 0 1 0-6.375 0 3.188 3.188 0 0 0 3.187 3.188m-9.855 0a3.187 3.187 0 0 0 3.187-3.188 3.187 3.187 0 1 0-6.375 0 3.188 3.188 0 0 0 3.188 3.188m-19.711 0a3.187 3.187 0 0 0 3.185-3.188 3.187 3.187 0 0 0-3.185-3.189 3.19 3.19 0 0 0-3.192 3.189c0 1.76 1.43 3.188 3.192 3.188m-9.858 0a3.188 3.188 0 0 0 3.188-3.188 3.187 3.187 0 1 0-6.375 0 3.189 3.189 0 0 0 3.187 3.188m-19.711-6.368a3.179 3.179 0 1 0 0 6.358 3.179 3.179 0 0 0 0-6.358m-9.857 6.368a3.187 3.187 0 0 0 3.187-3.188 3.186 3.186 0 1 0-6.375 0 3.189 3.189 0 0 0 3.188 3.188m-9.856-.01a3.179 3.179 0 1 0-.001-6.359 3.179 3.179 0 0 0 .001 6.359m-6.675-3.178a3.182 3.182 0 0 0-3.18-3.18 3.177 3.177 0 0 0-3.178 3.18 3.176 3.176 0 0 0 3.178 3.178 3.18 3.18 0 0 0 3.18-3.178m-13.037 3.188a3.19 3.19 0 0 0 0-6.377 3.187 3.187 0 0 0-3.186 3.189 3.187 3.187 0 0 0 3.186 3.188m-21.348-3.188a1.636 1.636 0 1 0 3.273 0 1.636 1.636 0 0 0-3.273 0m-27.933 3.188a3.19 3.19 0 1 0-3.187-3.188 3.19 3.19 0 0 0 3.187 3.188m-9.854 0a3.187 3.187 0 0 0 3.187-3.188 3.19 3.19 0 1 0-3.187 3.188m-9.857 0a3.188 3.188 0 1 0 0-6.376 3.188 3.188 0 0 0 0 6.376m-167.551 0a3.189 3.189 0 1 0-.002-6.378 3.189 3.189 0 0 0 .002 6.378m-9.857 0a3.188 3.188 0 1 0 0-6.376 3.188 3.188 0 0 0 0 6.376m-9.856 0a3.189 3.189 0 1 0-.002-6.378 3.189 3.189 0 0 0 .002 6.378m-9.856 0a3.19 3.19 0 1 0 0-6.378 3.19 3.19 0 0 0 0 6.378m-9.856 0a3.187 3.187 0 0 0 3.187-3.188 3.187 3.187 0 1 0-6.376 0 3.19 3.19 0 0 0 3.189 3.188m-9.857 0a3.188 3.188 0 1 0 .001-6.377 3.188 3.188 0 0 0-.001 6.377m-9.855 0a3.187 3.187 0 0 0 3.187-3.188 3.187 3.187 0 1 0-6.376 0 3.19 3.19 0 0 0 3.189 3.188m-9.856 0a3.189 3.189 0 1 0-.002-6.378 3.189 3.189 0 0 0 .002 6.378m-9.856 0a3.187 3.187 0 0 0 3.187-3.188 3.187 3.187 0 1 0-6.375 0 3.188 3.188 0 0 0 3.188 3.188m-9.856 0a3.189 3.189 0 1 0-.002-6.378 3.189 3.189 0 0 0 .002 6.378m-9.856 0a3.19 3.19 0 1 0 0-6.378 3.19 3.19 0 0 0 0 6.378m-9.856 0a3.189 3.189 0 1 0-.002-6.378 3.189 3.189 0 0 0 .002 6.378m-9.856 0a3.189 3.189 0 1 0-.002-6.378 3.189 3.189 0 0 0 .002 6.378m-9.856-6.377a3.188 3.188 0 1 0 0 6.376 3.188 3.188 0 0 0 0-6.376m650.498-3.48a3.187 3.187 0 0 0 0-6.376 3.189 3.189 0 1 0 0 6.376m-9.858 0a3.188 3.188 0 1 0 .003-6.377 3.188 3.188 0 0 0-.003 6.377m-9.857 0a3.188 3.188 0 1 0 .003-6.375 3.188 3.188 0 0 0-.003 6.375m-9.854 0a3.187 3.187 0 1 0 0-6.376 3.189 3.189 0 1 0 0 6.376m-9.857 0a3.186 3.186 0 0 0 3.187-3.187 3.186 3.186 0 1 0-6.375 0 3.188 3.188 0 0 0 3.188 3.187m-9.855 0a3.188 3.188 0 1 0-.002-6.376 3.188 3.188 0 0 0 .002 6.376m-9.856 0a3.187 3.187 0 1 0 0-6.376 3.188 3.188 0 1 0 0 6.376m-9.857 0a3.187 3.187 0 0 0 3.187-3.187 3.187 3.187 0 1 0-6.375 0 3.188 3.188 0 0 0 3.188 3.187m-9.856 0a3.19 3.19 0 0 0 3.19-3.187 3.19 3.19 0 0 0-3.19-3.189 3.186 3.186 0 0 0-3.187 3.189 3.186 3.186 0 0 0 3.187 3.187m-9.855 0a3.187 3.187 0 0 0 3.187-3.187 3.187 3.187 0 0 0-3.187-3.189 3.19 3.19 0 0 0-3.19 3.189 3.19 3.19 0 0 0 3.19 3.187m-9.858 0a3.188 3.188 0 1 0 .003-6.377 3.188 3.188 0 0 0-.003 6.377m-9.855 0a3.189 3.189 0 1 0 0-6.378 3.189 3.189 0 0 0 0 6.378m-9.856 0a3.19 3.19 0 0 0 3.19-3.187 3.188 3.188 0 1 0-3.19 3.187m-9.855 0a3.187 3.187 0 0 0 0-6.376 3.187 3.187 0 1 0 0 6.376m-9.858 0a3.187 3.187 0 1 0-3.187-3.187 3.187 3.187 0 0 0 3.187 3.187m-9.855 0a3.189 3.189 0 1 0 0-6.378 3.189 3.189 0 0 0 0 6.378m-9.856 0a3.187 3.187 0 1 0-3.187-3.187 3.187 3.187 0 0 0 3.187 3.187m-9.857 0a3.187 3.187 0 1 0-3.187-3.187 3.187 3.187 0 0 0 3.187 3.187m-9.855 0a3.188 3.188 0 1 0 .002-6.376 3.188 3.188 0 0 0-.002 6.376m-9.856-6.366a3.179 3.179 0 1 0 0 6.358 3.18 3.18 0 0 0 0-6.358m-9.855 6.366a3.187 3.187 0 0 0 3.187-3.187 3.187 3.187 0 1 0-6.375 0 3.187 3.187 0 0 0 3.188 3.187m-9.858-6.354a3.165 3.165 0 0 0-3.164 3.167 3.164 3.164 0 1 0 6.33 0 3.167 3.167 0 0 0-3.166-3.167m-19.711 6.354a3.187 3.187 0 1 0 .002-6.378 3.187 3.187 0 0 0-.002 6.378m-9.857 0a3.186 3.186 0 0 0 3.187-3.187 3.186 3.186 0 1 0-6.375 0 3.188 3.188 0 0 0 3.188 3.187m-26.389-3.187a3.177 3.177 0 0 0-3.178-3.179 3.179 3.179 0 1 0 3.178 3.179m-13.035 3.187a3.19 3.19 0 0 0 3.19-3.187 3.19 3.19 0 0 0-3.19-3.189 3.186 3.186 0 0 0-3.187 3.189 3.186 3.186 0 0 0 3.187 3.187m-9.855 0a3.188 3.188 0 1 0 .002-6.376 3.188 3.188 0 0 0-.002 6.376m-9.856 0a3.188 3.188 0 1 0 0-6.376 3.188 3.188 0 0 0 0 6.376m-19.711 0a3.187 3.187 0 1 0 0-6.376 3.189 3.189 0 1 0 0 6.376m-9.857 0a3.187 3.187 0 0 0 3.187-3.187 3.187 3.187 0 1 0-6.375 0 3.187 3.187 0 0 0 3.188 3.187m-9.857 0a3.187 3.187 0 1 0 .001-6.375 3.187 3.187 0 0 0-.001 6.375m-167.551 0a3.188 3.188 0 1 0 0-6.376 3.188 3.188 0 0 0 0 6.376m-9.856 0a3.187 3.187 0 1 0 .001-6.375 3.187 3.187 0 0 0-.001 6.375m-9.856 0a3.188 3.188 0 1 0 0-6.376 3.188 3.188 0 0 0 0 6.376m-9.857 0a3.188 3.188 0 1 0 .002-6.376 3.188 3.188 0 0 0-.002 6.376m-19.712 0a3.188 3.188 0 1 0 .002-6.376 3.188 3.188 0 0 0-.002 6.376m-9.856 0a3.187 3.187 0 1 0-3.188-3.187 3.187 3.187 0 0 0 3.188 3.187m-9.856 0a3.187 3.187 0 1 0 .001-6.375 3.187 3.187 0 0 0-.001 6.375m-9.856 0a3.187 3.187 0 1 0 .001-6.375 3.187 3.187 0 0 0-.001 6.375m-9.856 0a3.188 3.188 0 1 0 .002-6.376 3.188 3.188 0 0 0-.002 6.376m-9.856 0a3.187 3.187 0 1 0 .001-6.375 3.187 3.187 0 0 0-.001 6.375m-9.855 0a3.188 3.188 0 1 0 0-6.376 3.188 3.188 0 0 0 0 6.376m-9.856 0a3.188 3.188 0 1 0 0-6.376 3.188 3.188 0 0 0 0 6.376m-9.856 0a3.188 3.188 0 1 0-.002-6.376 3.188 3.188 0 0 0 .002 6.376m-9.857 0a3.188 3.188 0 1 0 .002-6.376 3.188 3.188 0 0 0-.002 6.376m-9.855 0a3.188 3.188 0 1 0-.002-6.376 3.188 3.188 0 0 0 .002 6.376m660.351-9.855a3.188 3.188 0 1 0 0 0m-9.853 0a3.188 3.188 0 0 0 0-6.376 3.19 3.19 0 0 0-3.192 3.187 3.191 3.191 0 0 0 3.192 3.189m-9.858 0a3.188 3.188 0 1 0 0-6.376 3.188 3.188 0 0 0 0 6.376m-9.857 0a3.189 3.189 0 1 0 0-6.377 3.189 3.189 0 0 0 0 6.377m-9.854 0a3.188 3.188 0 1 0 0-6.376 3.19 3.19 0 0 0-3.191 3.187 3.191 3.191 0 0 0 3.191 3.189m-9.857 0a3.187 3.187 0 0 0 3.187-3.189 3.187 3.187 0 1 0-3.187 3.189m-9.855 0a3.187 3.187 0 0 0 3.185-3.189 3.188 3.188 0 1 0-3.185 3.189m-9.858 0a3.188 3.188 0 1 0 0 0m-9.855 0a3.188 3.188 0 1 0-.001-6.375 3.188 3.188 0 0 0 .001 6.375m-9.856 0a3.19 3.19 0 0 0 0-6.376 3.185 3.185 0 0 0-3.187 3.187 3.187 3.187 0 0 0 3.187 3.189m-9.857 0a3.188 3.188 0 1 0 0-6.376 3.188 3.188 0 1 0 0 6.376m-9.856 0a3.188 3.188 0 1 0 0 0m-9.855 0a3.188 3.188 0 1 0-.002-6.376 3.188 3.188 0 0 0 .002 6.376m-9.858 0a3.191 3.191 0 0 0 3.192-3.189 3.19 3.19 0 0 0-6.377 0 3.187 3.187 0 0 0 3.185 3.189m-9.853 0a3.188 3.188 0 1 0-.002-6.376 3.188 3.188 0 0 0 .002 6.376m-9.858 0a3.188 3.188 0 1 0 0-6.376 3.188 3.188 0 0 0 0 6.376m-9.855 0a3.188 3.188 0 1 0 .002-6.376 3.188 3.188 0 0 0-.002 6.376m-9.856 0a3.19 3.19 0 1 0-.002-6.378 3.19 3.19 0 0 0 .002 6.378m-9.857 0a3.188 3.188 0 1 0 0-6.376 3.188 3.188 0 0 0 0 6.376m-9.855 0a3.188 3.188 0 1 0-.001-6.375 3.188 3.188 0 0 0 .001 6.375m-9.858 0a3.188 3.188 0 1 0 0 0m-9.853 0a3.188 3.188 0 0 0 0-6.376 3.19 3.19 0 0 0-3.192 3.187 3.191 3.191 0 0 0 3.192 3.189m-9.858 0a3.188 3.188 0 1 0 0-6.376 3.188 3.188 0 0 0 0 6.376m-9.855 0a3.188 3.188 0 1 0-.002-6.376 3.188 3.188 0 0 0 .002 6.376m-9.856 0a3.188 3.188 0 1 0 0-6.376 3.188 3.188 0 0 0 0 6.376m-9.857 0a3.187 3.187 0 0 0 3.187-3.189 3.187 3.187 0 1 0-3.187 3.189m-9.856 0a3.19 3.19 0 0 0 0-6.376 3.188 3.188 0 1 0 0 6.376m-9.857 0a3.189 3.189 0 1 0 0-6.377 3.189 3.189 0 0 0 0 6.377m-9.854 0a3.19 3.19 0 0 0 0-6.376 3.188 3.188 0 1 0 0 6.376m-9.857 0a3.19 3.19 0 0 0 0-6.376 3.185 3.185 0 0 0-3.187 3.187 3.187 3.187 0 0 0 3.187 3.189m-9.857 0a3.191 3.191 0 0 0 3.191-3.189 3.19 3.19 0 0 0-6.377 0 3.187 3.187 0 0 0 3.186 3.189m-9.854 0a3.19 3.19 0 1 0-.002-6.378 3.19 3.19 0 0 0 .002 6.378m-9.857 0a3.188 3.188 0 1 0-.001-6.375 3.188 3.188 0 0 0 .001 6.375m-9.857 0a3.189 3.189 0 1 0 0 0m-9.854 0a3.188 3.188 0 0 0 0-6.376 3.188 3.188 0 1 0 0 6.376m-9.857 0a3.188 3.188 0 1 0 0-6.377 3.188 3.188 0 0 0 0 6.377m-9.856-6.368a3.18 3.18 0 1 0 0 6.359 3.18 3.18 0 0 0 0-6.359m-130.459 3.179a2.33 2.33 0 1 0 4.662 0 2.33 2.33 0 0 0-4.662 0m-10.703 0a3.178 3.178 0 1 0 3.178-3.179 3.178 3.178 0 0 0-3.178 3.179m-16.533-2.33a2.33 2.33 0 1 0 0 4.661 2.33 2.33 0 1 0 0-4.661m-9.856 5.519a3.19 3.19 0 1 0-.002-6.378 3.19 3.19 0 0 0 .002 6.378m-9.857 0a3.188 3.188 0 1 0 0-6.377 3.188 3.188 0 0 0 0 6.377m-9.856 0a3.19 3.19 0 1 0-.002-6.378 3.19 3.19 0 0 0 .002 6.378m-9.856 0a3.188 3.188 0 1 0 0-6.377 3.188 3.188 0 0 0 0 6.377m-9.856 0a3.188 3.188 0 1 0 0-6.377 3.188 3.188 0 0 0 0 6.377m-19.713 0a3.189 3.189 0 1 0 0-6.377 3.189 3.189 0 0 0 0 6.377m-9.855 0a3.188 3.188 0 1 0-.001-6.375 3.188 3.188 0 0 0 .001 6.375m-9.857 0a3.188 3.188 0 1 0 .003-6.377 3.188 3.188 0 0 0-.003 6.377m-9.855 0a3.188 3.188 0 1 0 0-6.377 3.188 3.188 0 0 0 0 6.377m-9.856 0a3.19 3.19 0 1 0-.002-6.378 3.19 3.19 0 0 0 .002 6.378m-9.856 0a3.188 3.188 0 1 0 0-6.376 3.188 3.188 0 1 0 0 6.376m-9.856 0a3.188 3.188 0 1 0-.002-6.376 3.188 3.188 0 0 0 .002 6.376m-9.857 0a3.188 3.188 0 1 0 .003-6.377 3.188 3.188 0 0 0-.003 6.377m-9.855 0a3.19 3.19 0 1 0-.002-6.378 3.19 3.19 0 0 0 .002 6.378m709.634-15.727a2.683 2.683 0 1 0-.003 5.365 2.683 2.683 0 0 0 .003-5.365m-49.282 5.871a3.187 3.187 0 0 0 3.188-3.189 3.187 3.187 0 1 0-6.375 0 3.187 3.187 0 0 0 3.187 3.189m-9.857 0a3.19 3.19 0 1 0 .003-6.38 3.19 3.19 0 0 0-.003 6.38m-9.854 0a3.187 3.187 0 0 0 3.188-3.189 3.188 3.188 0 1 0-3.188 3.189m-9.857 0a3.186 3.186 0 0 0 3.187-3.189 3.188 3.188 0 1 0-3.187 3.189m-9.856 0a3.189 3.189 0 1 0 .002-6.378 3.189 3.189 0 0 0-.002 6.378m-9.855 0a3.188 3.188 0 0 0 3.187-3.189 3.187 3.187 0 1 0-6.376 0 3.19 3.19 0 0 0 3.189 3.189m-9.855 0a3.187 3.187 0 0 0 3.185-3.189 3.186 3.186 0 1 0-6.375 0 3.189 3.189 0 0 0 3.19 3.189m-9.858 0a3.187 3.187 0 0 0 3.188-3.189 3.187 3.187 0 1 0-6.375 0 3.186 3.186 0 0 0 3.187 3.189m-9.855 0a3.188 3.188 0 1 0-.002-6.376 3.188 3.188 0 0 0 .002 6.376m-9.856 0a3.188 3.188 0 1 0 0-6.377 3.188 3.188 0 0 0 0 6.377m-9.857 0a3.187 3.187 0 0 0 3.187-3.189 3.187 3.187 0 1 0-6.375 0 3.187 3.187 0 0 0 3.188 3.189m-9.858 0a3.19 3.19 0 0 0 3.192-3.189 3.19 3.19 0 0 0-3.192-3.188 3.186 3.186 0 0 0-3.185 3.188 3.187 3.187 0 0 0 3.185 3.189m-9.853 0a3.188 3.188 0 0 0 3.187-3.189 3.189 3.189 0 1 0-3.187 3.189m-9.858 0a3.189 3.189 0 1 0 0-6.377 3.186 3.186 0 0 0-3.185 3.188 3.187 3.187 0 0 0 3.185 3.189m-9.855 0a3.19 3.19 0 1 0 0-6.379 3.19 3.19 0 0 0 0 6.379m-9.856 0a3.187 3.187 0 0 0 3.188-3.189 3.188 3.188 0 1 0-3.188 3.189m-9.855 0a3.188 3.188 0 0 0 3.187-3.189 3.187 3.187 0 1 0-6.375 0 3.187 3.187 0 0 0 3.188 3.189m-9.857 0a3.187 3.187 0 0 0 3.187-3.189 3.187 3.187 0 1 0-6.375 0 3.187 3.187 0 0 0 3.188 3.189m-9.858 0a3.189 3.189 0 1 0 .002-6.378 3.189 3.189 0 0 0-.002 6.378m-9.853 0a3.187 3.187 0 0 0 3.187-3.189 3.187 3.187 0 1 0-6.375 0 3.187 3.187 0 0 0 3.188 3.189m-9.858 0a3.187 3.187 0 0 0 3.188-3.189 3.187 3.187 0 1 0-6.375 0 3.188 3.188 0 0 0 3.187 3.189m-9.855 0a3.19 3.19 0 1 0-.001-6.375 3.19 3.19 0 0 0 .001 6.375m-9.856 0a3.187 3.187 0 0 0 3.188-3.189 3.19 3.19 0 1 0-3.188 3.189m-9.855 0a3.186 3.186 0 0 0 3.185-3.189 3.189 3.189 0 1 0-3.185 3.189m-9.858 0a3.189 3.189 0 1 0 .002-6.378 3.189 3.189 0 0 0-.002 6.378m-9.855 0a3.188 3.188 0 0 0 3.187-3.189 3.187 3.187 0 1 0-6.377 0 3.19 3.19 0 0 0 3.19 3.189m-9.856 0a3.188 3.188 0 1 0 0-6.377 3.188 3.188 0 0 0 0 6.377m-9.857 0a3.186 3.186 0 0 0 3.187-3.189 3.188 3.188 0 1 0-3.187 3.189m-9.857 0a3.19 3.19 0 0 0 3.191-3.189 3.188 3.188 0 1 0-3.191 3.189m-9.854 0a3.188 3.188 0 1 0 0-6.377 3.188 3.188 0 0 0 0 6.377m-9.857 0a3.189 3.189 0 1 0 0-6.377 3.189 3.189 0 0 0 0 6.377m-9.856 0a3.19 3.19 0 0 0 3.19-3.189 3.187 3.187 0 1 0-6.377 0 3.188 3.188 0 0 0 3.187 3.189m-9.855 0a3.187 3.187 0 0 0 3.187-3.189 3.189 3.189 0 1 0-3.187 3.189m-9.857 0a3.188 3.188 0 1 0 .002-6.376 3.188 3.188 0 0 0-.002 6.376m-9.856 0a3.189 3.189 0 1 0 0-6.377 3.189 3.189 0 0 0 0 6.377m-19.711 0a3.187 3.187 0 0 0 3.187-3.189 3.187 3.187 0 1 0-6.375 0 3.188 3.188 0 0 0 3.188 3.189m-147.84 0a3.188 3.188 0 1 0 0-6.377 3.188 3.188 0 0 0 0 6.377m-9.856 0a3.188 3.188 0 1 0 0-6.377 3.188 3.188 0 0 0 0 6.377m-9.856 0a3.188 3.188 0 1 0 0-6.377 3.188 3.188 0 0 0 0 6.377m-9.856 0a3.188 3.188 0 1 0 0-6.377 3.188 3.188 0 0 0 0 6.377m-9.857 0a3.188 3.188 0 1 0 0-6.376 3.188 3.188 0 0 0 0 6.376m-9.855 0a3.187 3.187 0 0 0 3.187-3.189 3.188 3.188 0 1 0-3.187 3.189m-9.857 0a3.189 3.189 0 1 0 0-6.377 3.189 3.189 0 0 0 0 6.377m-9.856 0a3.187 3.187 0 0 0 3.188-3.189 3.188 3.188 0 1 0-3.188 3.189m-9.856 0a3.188 3.188 0 1 0 0-6.377 3.188 3.188 0 0 0 0 6.377m-9.856 0a3.188 3.188 0 1 0 0-6.376 3.188 3.188 0 0 0 0 6.376m-9.856 0a3.188 3.188 0 1 0 0-6.376 3.188 3.188 0 0 0 0 6.376m-9.856 0a3.189 3.189 0 1 0 0-6.377 3.189 3.189 0 0 0 0 6.377m-9.855 0a3.188 3.188 0 0 0 3.187-3.189 3.187 3.187 0 1 0-6.376 0 3.189 3.189 0 0 0 3.189 3.189m-9.857 0a3.189 3.189 0 1 0 0-6.377 3.189 3.189 0 0 0 0 6.377m-9.856 0a3.188 3.188 0 1 0 0-6.377 3.188 3.188 0 0 0 0 6.377m-9.856 0a3.188 3.188 0 1 0 0-6.376 3.188 3.188 0 0 0 0 6.376m-9.855 0a3.188 3.188 0 0 0 3.187-3.189 3.187 3.187 0 1 0-6.376 0 3.188 3.188 0 0 0 3.189 3.189m709.632-16.233a3.188 3.188 0 1 0 0 6.375 3.188 3.188 0 0 0 0-6.375m-49.28 6.376a3.188 3.188 0 1 0 0-6.377 3.188 3.188 0 0 0 0 6.377m-9.857 0a3.186 3.186 0 0 0 3.187-3.188 3.187 3.187 0 1 0-6.375 0 3.188 3.188 0 0 0 3.188 3.188m-9.856 0a3.189 3.189 0 1 0 .003-6.377 3.189 3.189 0 0 0-.003 6.377m-9.855 0a3.186 3.186 0 0 0 3.187-3.188 3.187 3.187 0 0 0-3.187-3.188 3.19 3.19 0 0 0-3.19 3.188 3.19 3.19 0 0 0 3.19 3.188m-9.856 0a3.188 3.188 0 1 0-3.189-3.188 3.188 3.188 0 0 0 3.189 3.188m-9.857 0a3.188 3.188 0 1 0 .002-6.376 3.188 3.188 0 0 0-.002 6.376m-9.853 0a3.186 3.186 0 0 0 3.185-3.188 3.187 3.187 0 0 0-3.185-3.188 3.191 3.191 0 0 0-3.192 3.188 3.19 3.19 0 0 0 3.192 3.188m-9.858 0a3.188 3.188 0 1 0 0-6.377 3.188 3.188 0 0 0 0 6.377m-9.857 0a3.187 3.187 0 1 0 0-6.377 3.187 3.187 0 0 0 0 6.377m-9.856 0a3.19 3.19 0 0 0 3.19-3.188 3.188 3.188 0 1 0-3.19 3.188m-9.855 0a3.187 3.187 0 1 0 0-6.377 3.187 3.187 0 0 0 0 6.377m-9.858 0a3.189 3.189 0 1 0 .003-6.377 3.189 3.189 0 0 0-.003 6.377m-9.855 0a3.19 3.19 0 1 0 0-6.378 3.19 3.19 0 0 0 0 6.378m-9.856 0a3.189 3.189 0 1 0 .003-6.377 3.189 3.189 0 0 0-.003 6.377m-9.855 0a3.187 3.187 0 1 0 0-6.375 3.187 3.187 0 0 0 0 6.375m-9.858 0a3.189 3.189 0 1 0 .003-6.377 3.189 3.189 0 0 0-.003 6.377m-9.853 0a3.187 3.187 0 1 0 0-6.375 3.187 3.187 0 0 0 0 6.375m-9.857 0a3.187 3.187 0 1 0 0-6.377 3.187 3.187 0 0 0 0 6.377m-9.858 0a3.188 3.188 0 1 0 0-6.377 3.188 3.188 0 0 0 0 6.377m-9.853 0a3.19 3.19 0 0 0 3.187-3.188 3.19 3.19 0 0 0-6.377 0 3.189 3.189 0 0 0 3.19 3.188m-9.858 0a3.188 3.188 0 1 0-3.189-3.188 3.19 3.19 0 0 0 3.189 3.188m-9.855 0a3.186 3.186 0 0 0 3.185-3.188 3.187 3.187 0 1 0-3.185 3.188m-9.858 0a3.189 3.189 0 1 0 .003-6.377 3.189 3.189 0 0 0-.003 6.377m-9.853 0a3.186 3.186 0 0 0 3.185-3.188 3.186 3.186 0 0 0-3.185-3.188 3.191 3.191 0 0 0-3.192 3.188 3.19 3.19 0 0 0 3.192 3.188m-9.858 0a3.188 3.188 0 1 0 0-6.377 3.188 3.188 0 0 0 0 6.377m-9.857 0a3.188 3.188 0 1 0 .002-6.376 3.188 3.188 0 0 0-.002 6.376m-9.854 0a3.188 3.188 0 1 0 0-6.376 3.188 3.188 0 0 0 0 6.376m-9.857 0a3.186 3.186 0 0 0 3.187-3.188 3.187 3.187 0 1 0-6.375 0 3.188 3.188 0 0 0 3.188 3.188m-9.857 0a3.188 3.188 0 1 0 .001-6.377 3.188 3.188 0 0 0-.001 6.377m-9.856 0a3.19 3.19 0 0 0 3.19-3.188 3.188 3.188 0 1 0-3.19 3.188m-9.855 0a3.188 3.188 0 1 0 .001-6.377 3.188 3.188 0 0 0-.001 6.377m-9.856 0a3.188 3.188 0 1 0 0-6.376 3.188 3.188 0 0 0 0 6.376m-9.857 0a3.188 3.188 0 1 0 .001-6.377 3.188 3.188 0 0 0-.001 6.377m-9.855 0a3.188 3.188 0 1 0 0-6.376 3.19 3.19 0 0 0 0 6.376m-29.567-.167a3.02 3.02 0 1 0-.001-6.041 3.02 3.02 0 0 0 .001 6.041m-9.857.167a3.188 3.188 0 1 0 0-6.375 3.188 3.188 0 0 0 0 6.375m-141.164-3.188a3.18 3.18 0 1 0 6.358 0 3.18 3.18 0 0 0-6.358 0m-6.675 3.188a3.187 3.187 0 1 0 0-6.375 3.187 3.187 0 0 0 0 6.375m-9.857 0a3.188 3.188 0 1 0 .001-6.377 3.188 3.188 0 0 0-.001 6.377m-9.856 0a3.187 3.187 0 1 0 0-6.375 3.187 3.187 0 0 0 0 6.375m-9.857 0a3.188 3.188 0 1 0 .001-6.377 3.188 3.188 0 0 0-.001 6.377m-19.712 0a3.188 3.188 0 1 0 .002-6.376 3.188 3.188 0 0 0-.002 6.376m-9.856 0a3.188 3.188 0 1 0 0-6.375 3.188 3.188 0 0 0 0 6.375m-9.856 0a3.188 3.188 0 1 0 .001-6.377 3.188 3.188 0 0 0-.001 6.377m-9.855 0a3.187 3.187 0 1 0 0-6.375 3.187 3.187 0 0 0 0 6.375m-9.856 0a3.188 3.188 0 1 0 0-6.376 3.188 3.188 0 0 0 0 6.376m-9.856 0a3.188 3.188 0 1 0 0-6.376 3.188 3.188 0 0 0 0 6.376m-9.856 0a3.188 3.188 0 1 0 0-6.376 3.188 3.188 0 0 0 0 6.376m-9.856 0a3.188 3.188 0 1 0 0-6.375 3.188 3.188 0 0 0 0 6.375m-9.856 0a3.187 3.187 0 1 0 0-6.375 3.187 3.187 0 0 0 0 6.375m-9.857 0a3.188 3.188 0 1 0 .001-6.377 3.188 3.188 0 0 0-.001 6.377m-9.855 0a3.188 3.188 0 1 0 0-6.376 3.188 3.188 0 1 0 0 6.376m-9.857-6.376a3.188 3.188 0 1 0 .002 6.376 3.188 3.188 0 0 0-.002-6.376m729.345-9.856a3.187 3.187 0 1 0 0 6.375 3.187 3.187 0 0 0 0-6.375m-9.855 6.376a3.188 3.188 0 1 0-.002-6.376 3.188 3.188 0 0 0 .002 6.376m-49.282 0a3.189 3.189 0 1 0 .003-6.377 3.189 3.189 0 0 0-.003 6.377m-9.855 0a3.186 3.186 0 0 0 3.187-3.188 3.188 3.188 0 1 0-3.187 3.188m-9.856 0a3.187 3.187 0 0 0 3.188-3.188 3.187 3.187 0 1 0-6.375 0 3.187 3.187 0 0 0 3.187 3.188m-9.857 0a3.188 3.188 0 1 0 .002-6.376 3.188 3.188 0 0 0-.002 6.376m-9.854 0a3.187 3.187 0 0 0 3.188-3.188 3.19 3.19 0 0 0-6.379 0 3.19 3.19 0 0 0 3.191 3.188m-9.857 0a3.187 3.187 0 0 0 3.188-3.188 3.187 3.187 0 1 0-6.375 0 3.187 3.187 0 0 0 3.187 3.188m-9.855 0a3.188 3.188 0 1 0-.002-6.376 3.188 3.188 0 0 0 .002 6.376m-9.856 0a3.187 3.187 0 0 0 3.188-3.188 3.188 3.188 0 1 0-3.188 3.188m-9.857 0a3.187 3.187 0 0 0 3.187-3.188 3.187 3.187 0 1 0-6.375 0 3.188 3.188 0 0 0 3.188 3.188m-9.856 0a3.188 3.188 0 1 0 0-6.376 3.188 3.188 0 0 0 0 6.376m-9.855 0a3.188 3.188 0 1 0-.002-6.376 3.188 3.188 0 0 0 .002 6.376m-9.858 0a3.189 3.189 0 1 0 .003-6.377 3.189 3.189 0 0 0-.003 6.377m-9.855 0a3.187 3.187 0 1 0 0-6.375 3.187 3.187 0 0 0 0 6.375m-9.858 0a3.19 3.19 0 0 0 3.192-3.188 3.19 3.19 0 0 0-3.192-3.188 3.185 3.185 0 0 0-3.185 3.188 3.185 3.185 0 0 0 3.185 3.188m-9.853 0a3.187 3.187 0 0 0 0-6.376 3.189 3.189 0 1 0 0 6.376m-9.858 0a3.187 3.187 0 0 0 3.188-3.188 3.187 3.187 0 1 0-6.375 0 3.187 3.187 0 0 0 3.187 3.188m-9.857 0a3.19 3.19 0 0 0 3.191-3.188 3.19 3.19 0 0 0-3.191-3.188 3.186 3.186 0 0 0-3.185 3.188 3.186 3.186 0 0 0 3.185 3.188m-9.853 0a3.187 3.187 0 0 0 3.187-3.188 3.189 3.189 0 1 0-3.187 3.188m-9.858 0a3.187 3.187 0 0 0 3.188-3.188 3.187 3.187 0 1 0-6.375 0 3.187 3.187 0 0 0 3.187 3.188m-9.855 0a3.19 3.19 0 0 0 3.189-3.188 3.19 3.19 0 0 0-6.377 0 3.187 3.187 0 0 0 3.188 3.188m-9.858 0a3.189 3.189 0 1 0 .003-6.377 3.189 3.189 0 0 0-.003 6.377m-9.853 0a3.186 3.186 0 0 0 3.185-3.188 3.186 3.186 0 1 0-6.375 0 3.189 3.189 0 0 0 3.19 3.188m-9.858 0a3.187 3.187 0 0 0 3.188-3.188 3.187 3.187 0 1 0-6.375 0 3.188 3.188 0 0 0 3.187 3.188m-9.855 0a3.187 3.187 0 0 0 0-6.376 3.189 3.189 0 1 0 0 6.376m-9.856 0a3.187 3.187 0 0 0 3.188-3.188 3.188 3.188 0 1 0-3.188 3.188m-19.713 0a3.19 3.19 0 0 0 3.19-3.188 3.19 3.19 0 0 0-3.19-3.188 3.187 3.187 0 0 0-3.187 3.188 3.187 3.187 0 0 0 3.187 3.188m-9.855 0a3.187 3.187 0 1 0 0-6.375 3.187 3.187 0 0 0 0 6.375m-9.857 0a3.188 3.188 0 1 0 .001-6.377 3.188 3.188 0 0 0-.001 6.377m-9.856 0a3.188 3.188 0 1 0 0-6.376 3.188 3.188 0 0 0 0 6.376m-19.711-6.367a3.178 3.178 0 1 0 0 6.358 3.18 3.18 0 0 0 3.18-3.179 3.18 3.18 0 0 0-3.18-3.179m-19.714 6.367a3.19 3.19 0 0 0 3.191-3.188 3.19 3.19 0 0 0-6.378 0 3.189 3.189 0 0 0 3.187 3.188m-29.567-1.353a1.834 1.834 0 1 0 .001-3.669 1.834 1.834 0 0 0-.001 3.669m-157.695 1.353a3.188 3.188 0 1 0 0-6.376 3.188 3.188 0 0 0 0 6.376m-9.856 0a3.188 3.188 0 1 0 0-6.376 3.188 3.188 0 0 0 0 6.376m-9.857 0a3.188 3.188 0 1 0 0-6.375 3.188 3.188 0 0 0 0 6.375m-39.424 0a3.187 3.187 0 0 0 3.187-3.188 3.188 3.188 0 1 0-3.187 3.188m-9.857 0a3.188 3.188 0 1 0 .001-6.377 3.188 3.188 0 0 0-.001 6.377m-9.855 0a3.188 3.188 0 1 0 0-6.376 3.188 3.188 0 1 0 0 6.376m-9.856 0a3.188 3.188 0 1 0 0-6.376 3.188 3.188 0 0 0 0 6.376m-9.856 0a3.188 3.188 0 1 0 .001-6.377 3.188 3.188 0 0 0-.001 6.377m-9.855 0a3.188 3.188 0 1 0-.002-6.376 3.188 3.188 0 0 0 .002 6.376m-9.858 0a3.189 3.189 0 1 0 .003-6.377 3.189 3.189 0 0 0-.003 6.377m-9.855 0a3.188 3.188 0 1 0 0-6.376 3.188 3.188 0 0 0 0 6.376m-9.856 0a3.188 3.188 0 1 0 0-6.376 3.188 3.188 0 0 0 0 6.376m-9.856 0a3.188 3.188 0 1 0 0-6.375 3.188 3.188 0 0 0 0 6.375m-9.856 0a3.188 3.188 0 1 0 0-6.376 3.188 3.188 0 1 0 0 6.376m-9.856-6.376a3.188 3.188 0 1 0-.001 6.377 3.188 3.188 0 0 0 .001-6.377m-9.857.699a2.49 2.49 0 1 0 0 4.978 2.49 2.49 0 0 0 0-4.978m-59.135.654a1.834 1.834 0 1 0-.001 3.669 1.834 1.834 0 0 0 .001-3.669m805.013-8.021a3.18 3.18 0 1 0 6.358 0 3.18 3.18 0 0 0-6.358 0m-16.533 3.189a3.19 3.19 0 0 0 0-6.377 3.186 3.186 0 0 0-3.185 3.188 3.187 3.187 0 0 0 3.185 3.189m-29.566 0a3.189 3.189 0 0 0 0-6.377 3.188 3.188 0 1 0 0 6.377m-9.858 0a3.188 3.188 0 1 0 0-6.377 3.188 3.188 0 0 0 0 6.377m-9.855 0a3.189 3.189 0 1 0-.004-6.378 3.189 3.189 0 0 0 .004 6.378m-9.856 0a3.188 3.188 0 1 0 0-6.377 3.188 3.188 0 0 0 0 6.377m-9.857 0a3.188 3.188 0 0 0 3.187-3.189 3.187 3.187 0 1 0-6.375 0 3.19 3.19 0 0 0 3.188 3.189m-9.856 0c1.76 0 3.19-1.429 3.19-3.189a3.19 3.19 0 0 0-6.379 0c0 1.76 1.43 3.189 3.189 3.189m-9.855 0a3.188 3.188 0 1 0 0-6.377 3.188 3.188 0 0 0 0 6.377m-9.855 0a3.188 3.188 0 0 0 3.185-3.189 3.187 3.187 0 1 0-6.375 0 3.19 3.19 0 0 0 3.19 3.189m-9.858 0a3.19 3.19 0 1 0 .001-6.375 3.19 3.19 0 0 0-.001 6.375m-9.855 0a3.188 3.188 0 1 0-.002-6.376 3.188 3.188 0 0 0 .002 6.376m-9.856 0a3.19 3.19 0 0 0 0-6.377 3.187 3.187 0 0 0-3.187 3.188 3.188 3.188 0 0 0 3.187 3.189m-9.857 0a3.19 3.19 0 1 0 0-6.376 3.19 3.19 0 0 0 0 6.376m-9.856 0c1.76 0 3.19-1.429 3.19-3.189a3.189 3.189 0 1 0-3.19 3.189m-9.855 0a3.189 3.189 0 0 0 0-6.377 3.188 3.188 0 1 0 0 6.377m-9.858 0a3.19 3.19 0 0 0 0-6.377 3.186 3.186 0 0 0-3.185 3.188 3.187 3.187 0 0 0 3.185 3.189m-9.857 0a3.191 3.191 0 0 0 3.191-3.189 3.188 3.188 0 1 0-3.191 3.189m-9.854 0a3.188 3.188 0 1 0 0-6.377 3.188 3.188 0 0 0 0 6.377m-9.857 0a3.19 3.19 0 0 0 0-6.377 3.186 3.186 0 0 0-3.185 3.188 3.187 3.187 0 0 0 3.185 3.189m-9.855 0a3.191 3.191 0 0 0 3.189-3.189 3.188 3.188 0 1 0-3.189 3.189m-9.856 0a3.188 3.188 0 1 0 0-6.377 3.188 3.188 0 0 0 0 6.377m-9.855 0a3.19 3.19 0 0 0 0-6.377 3.188 3.188 0 1 0 0 6.377m-9.858 0a3.188 3.188 0 1 0 0-6.377 3.188 3.188 0 0 0 0 6.377m-9.853 0a3.188 3.188 0 1 0-.007-6.377 3.188 3.188 0 0 0 .007 6.377m-9.858 0a3.188 3.188 0 1 0 0-6.377 3.188 3.188 0 0 0 0 6.377m-9.855 0a3.187 3.187 0 0 0 3.185-3.189 3.186 3.186 0 1 0-6.375 0 3.19 3.19 0 0 0 3.19 3.189m-9.858 0a3.19 3.19 0 1 0 .001-6.375 3.19 3.19 0 0 0-.001 6.375m-9.855 0a3.188 3.188 0 0 0 3.187-3.189 3.187 3.187 0 0 0-3.187-3.188 3.19 3.19 0 0 0-3.19 3.188c0 1.76 1.43 3.189 3.19 3.189m-9.856 0a3.19 3.19 0 0 0 0-6.377 3.188 3.188 0 1 0 0 6.377m-9.857 0a3.19 3.19 0 0 0 0-6.377 3.187 3.187 0 0 0-3.187 3.188 3.188 3.188 0 0 0 3.187 3.189m-9.855 0a3.19 3.19 0 1 0 0-6.376 3.19 3.19 0 0 0 0 6.376m-9.856 0a3.19 3.19 0 0 0 0-6.377 3.187 3.187 0 0 0-3.187 3.188 3.188 3.188 0 0 0 3.187 3.189m-19.711 0a3.191 3.191 0 0 0 3.188-3.189 3.188 3.188 0 1 0-3.188 3.189m-9.857 0a3.188 3.188 0 1 0-.002-6.376 3.188 3.188 0 0 0 .002 6.376m-9.857 0a3.188 3.188 0 1 0 0-6.377 3.188 3.188 0 0 0 0 6.377m-187.263 0a3.19 3.19 0 0 0 0-6.377 3.188 3.188 0 1 0 0 6.377m-19.712 0a3.188 3.188 0 1 0-.002-6.376 3.188 3.188 0 0 0 .002 6.376m-9.857 0a3.19 3.19 0 1 0 0-6.376 3.19 3.19 0 0 0 0 6.376m-49.279 0a3.189 3.189 0 1 0-.004-6.378 3.189 3.189 0 0 0 .004 6.378m-9.856 0a3.189 3.189 0 1 0-.004-6.378 3.189 3.189 0 0 0 .004 6.378m-9.857 0a3.19 3.19 0 1 0 0-6.376 3.19 3.19 0 0 0 0 6.376m-9.855 0a3.19 3.19 0 0 0 0-6.377 3.188 3.188 0 0 0 0 6.377m-9.857 0a3.19 3.19 0 1 0-.002-6.378 3.19 3.19 0 0 0 .002 6.378m-9.855 0a3.19 3.19 0 0 0 0-6.377 3.19 3.19 0 0 0 0 6.377m-9.857 0a3.19 3.19 0 1 0 0-6.376 3.19 3.19 0 0 0 0 6.376m-9.855 0a3.188 3.188 0 1 0-.002-6.376 3.188 3.188 0 0 0 .002 6.376m-9.858 0a3.19 3.19 0 0 0 0-6.377 3.189 3.189 0 0 0 0 6.377m-9.855 0a3.188 3.188 0 1 0 0-6.377 3.188 3.188 0 0 0 0 6.377m-9.856-6.377a3.189 3.189 0 1 0 .002 6.378 3.189 3.189 0 0 0-.002-6.378m-49.28 0a3.188 3.188 0 1 0 0 6.376 3.188 3.188 0 0 0 0-6.376m-9.856 0a3.189 3.189 0 1 0 .002 6.378 3.189 3.189 0 0 0-.002-6.378m837.76-3.48a3.189 3.189 0 1 0 .003-6.377 3.189 3.189 0 0 0-.003 6.377m-9.853 0a3.187 3.187 0 0 0 0-6.376 3.189 3.189 0 0 0 0 6.376m-9.857-6.376a3.188 3.188 0 1 0 0 6.375 3.188 3.188 0 0 0 0-6.375m-19.713 6.376a3.19 3.19 0 0 0 3.189-3.188 3.189 3.189 0 1 0-3.189 3.188m-9.856 0a3.189 3.189 0 1 0 .003-6.377 3.189 3.189 0 0 0-.003 6.377m-9.855 0a3.188 3.188 0 1 0-.002-6.376 3.188 3.188 0 0 0 .002 6.376m-9.858 0a3.189 3.189 0 1 0 .003-6.377 3.189 3.189 0 0 0-.003 6.377m-9.853 0a3.187 3.187 0 0 0 0-6.376 3.189 3.189 0 0 0 0 6.376m-9.858 0a3.188 3.188 0 1 0 0-6.377 3.188 3.188 0 0 0 0 6.377m-9.857 0a3.188 3.188 0 1 0 .002-6.376 3.188 3.188 0 0 0-.002 6.376m-9.854 0a3.188 3.188 0 1 0-3.189-3.188 3.188 3.188 0 0 0 3.189 3.188m-9.857 0a3.186 3.186 0 0 0 3.187-3.188 3.187 3.187 0 1 0-6.375 0 3.188 3.188 0 0 0 3.188 3.188m-9.856 0a3.187 3.187 0 0 0 3.186-3.188 3.187 3.187 0 1 0-3.186 3.188m-9.855 0a3.188 3.188 0 1 0 0-6.376 3.188 3.188 0 0 0 0 6.376m-9.855 0a3.186 3.186 0 0 0 3.185-3.188 3.187 3.187 0 1 0-3.185 3.188m-9.858 0a3.188 3.188 0 1 0 0-6.377 3.188 3.188 0 0 0 0 6.377m-9.857 0a3.188 3.188 0 1 0 .001-6.377 3.188 3.188 0 0 0-.001 6.377m-9.854 0a3.188 3.188 0 1 0 0-6.376 3.188 3.188 0 0 0 0 6.376m-9.857 0a3.187 3.187 0 1 0 0-6.377 3.187 3.187 0 0 0 0 6.377m-9.858 0a3.19 3.19 0 0 0 3.192-3.188c0-1.76-1.43-3.188-3.192-3.188a3.187 3.187 0 0 0-3.185 3.188 3.186 3.186 0 0 0 3.185 3.188m-9.853 0a3.189 3.189 0 1 0-.003-6.377 3.189 3.189 0 0 0 .003 6.377m-9.858 0a3.189 3.189 0 1 0 .003-6.377 3.189 3.189 0 0 0-.003 6.377m-9.857 0a3.188 3.188 0 1 0 .002-6.376 3.188 3.188 0 0 0-.002 6.376m-9.855 0a3.188 3.188 0 1 0 .001-6.377 3.188 3.188 0 0 0-.001 6.377m-9.856 0a3.189 3.189 0 1 0 .003-6.377 3.189 3.189 0 0 0-.003 6.377m-9.855 0a3.188 3.188 0 1 0-.002-6.376 3.188 3.188 0 0 0 .002 6.376m-9.858 0a3.189 3.189 0 1 0 .003-6.377 3.189 3.189 0 0 0-.003 6.377m-9.853 0a3.188 3.188 0 1 0-.002-6.376 3.188 3.188 0 0 0 .002 6.376m-9.858 0a3.188 3.188 0 1 0 0-6.377 3.188 3.188 0 0 0 0 6.377m-9.855 0a3.186 3.186 0 0 0 3.185-3.188 3.186 3.186 0 1 0-6.375 0 3.189 3.189 0 0 0 3.19 3.188m-9.856 0a3.188 3.188 0 1 0 0-6.376 3.188 3.188 0 0 0 0 6.376m-9.855 0a3.186 3.186 0 0 0 3.185-3.188 3.186 3.186 0 1 0-6.375 0 3.189 3.189 0 0 0 3.19 3.188m-9.858 0a3.188 3.188 0 1 0 0-6.377 3.188 3.188 0 0 0 0 6.377m-9.857 0a3.188 3.188 0 1 0 .002-6.376 3.188 3.188 0 0 0-.002 6.376m-9.854 0a3.188 3.188 0 1 0 0-6.376 3.188 3.188 0 0 0 0 6.376m-9.857 0a3.188 3.188 0 1 0 0-6.377 3.188 3.188 0 0 0 0 6.377m-9.857 0a3.19 3.19 0 0 0 3.191-3.188 3.189 3.189 0 1 0-3.191 3.188m-9.854 0a3.188 3.188 0 1 0 0-6.376 3.188 3.188 0 0 0 0 6.376m-19.715 0a3.19 3.19 0 0 0 3.192-3.188c0-1.76-1.43-3.188-3.192-3.188a3.186 3.186 0 0 0-3.185 3.188 3.186 3.186 0 0 0 3.185 3.188m-9.853 0a3.187 3.187 0 1 0-3.19-3.188 3.189 3.189 0 0 0 3.19 3.188m-147.841 0a3.188 3.188 0 1 0 0-6.376 3.188 3.188 0 0 0 0 6.376M239.22 98.57a3.178 3.178 0 1 0-.001 6.357 3.178 3.178 0 0 0 .001-6.357m-9.856 6.366a3.188 3.188 0 1 0 0-6.375 3.188 3.188 0 0 0 0 6.375m-49.28 0a3.188 3.188 0 1 0 0-6.375 3.188 3.188 0 0 0 0 6.375m-9.856 0a3.188 3.188 0 1 0 0-6.376 3.188 3.188 0 0 0 0 6.376m-9.856 0a3.188 3.188 0 1 0 0-6.375 3.188 3.188 0 0 0 0 6.375m-9.855 0a3.188 3.188 0 1 0-.002-6.376 3.188 3.188 0 0 0 .002 6.376m-9.858-6.366a3.178 3.178 0 1 0 0 6.358 3.179 3.179 0 1 0 0-6.358m-9.855.495a2.684 2.684 0 1 0 0 5.367 2.684 2.684 0 0 0 0-5.367m-9.856 5.871a3.188 3.188 0 1 0 0-6.376 3.188 3.188 0 0 0 0 6.376m-9.857 0a3.188 3.188 0 1 0 0-6.377 3.188 3.188 0 0 0 0 6.377m-9.856 0a3.188 3.188 0 1 0 0-6.375 3.188 3.188 0 0 0 0 6.375m-9.856 0a3.188 3.188 0 1 0 0-6.377 3.188 3.188 0 0 0 0 6.377m-9.856 0a3.188 3.188 0 1 0 .002-6.376 3.188 3.188 0 0 0-.002 6.376m-9.856-6.376a3.188 3.188 0 1 0 .002 6.376 3.188 3.188 0 0 0-.002-6.376m-9.855 0a3.188 3.188 0 1 0 0 6.376 3.188 3.188 0 0 0 0-6.376m-9.856 0a3.188 3.188 0 1 0 0 6.376 3.188 3.188 0 0 0 0-6.376m-9.856 0a3.19 3.19 0 1 0 0 6.378 3.19 3.19 0 0 0 0-6.378m-9.857 6.376a3.188 3.188 0 1 0 .001-6.377 3.188 3.188 0 0 0-.001 6.377m-9.855 0a3.187 3.187 0 1 0 0-6.375 3.187 3.187 0 0 0 0 6.375m-9.857-6.376a3.188 3.188 0 1 0 .002 6.376 3.188 3.188 0 0 0-.002-6.376m857.475-3.48a3.187 3.187 0 0 0 0-6.375 3.188 3.188 0 1 0 0 6.375m-9.858 0a3.187 3.187 0 1 0 .002-6.374 3.187 3.187 0 0 0-.002 6.374m-9.855 0a3.188 3.188 0 1 0 .002-6.374 3.188 3.188 0 0 0-.002 6.374m-9.855 0a3.187 3.187 0 1 0 0-6.375 3.188 3.188 0 1 0 0 6.375m-9.858 0a3.189 3.189 0 1 0 .003-6.377 3.189 3.189 0 0 0-.003 6.377m-9.855 0a3.188 3.188 0 1 0-.002-6.376 3.188 3.188 0 0 0 .002 6.376m-9.858 0a3.19 3.19 0 0 0 3.192-3.188 3.19 3.19 0 0 0-6.377 0 3.187 3.187 0 0 0 3.185 3.188m-9.853 0a3.188 3.188 0 1 0-.002-6.376 3.188 3.188 0 0 0 .002 6.376m-9.858 0a3.187 3.187 0 1 0 .002-6.374 3.187 3.187 0 0 0-.002 6.374m-9.857 0a3.189 3.189 0 1 0 0 0m-9.854 0a3.187 3.187 0 1 0 0-6.375 3.188 3.188 0 1 0 0 6.375m-9.857 0a3.186 3.186 0 0 0 3.187-3.188 3.187 3.187 0 1 0-3.187 3.188m-9.856 0a3.19 3.19 0 0 0 3.19-3.188 3.19 3.19 0 0 0-6.377 0 3.187 3.187 0 0 0 3.187 3.188m-9.855 0a3.187 3.187 0 1 0 0-6.375 3.187 3.187 0 0 0 0 6.375m-9.856 0a3.187 3.187 0 0 0 3.186-3.188 3.188 3.188 0 1 0-3.186 3.188m-9.857 0a3.189 3.189 0 1 0 .003-6.377 3.189 3.189 0 0 0-.003 6.377m-9.855 0a3.188 3.188 0 1 0-.002-6.376 3.188 3.188 0 0 0 .002 6.376m-9.856 0a3.187 3.187 0 1 0 0-6.375 3.185 3.185 0 0 0-3.187 3.187 3.186 3.186 0 0 0 3.187 3.188m-9.857 0a3.187 3.187 0 1 0 0-6.375 3.187 3.187 0 1 0 0 6.375m-9.856 0a3.19 3.19 0 0 0 3.19-3.188 3.19 3.19 0 0 0-6.377 0 3.187 3.187 0 0 0 3.187 3.188m-9.855 0a3.187 3.187 0 1 0 0-6.375 3.188 3.188 0 1 0 0 6.375m-9.858 0a3.189 3.189 0 1 0 .003-6.377 3.189 3.189 0 0 0-.003 6.377m-9.855 0a3.188 3.188 0 1 0 .002-6.374 3.188 3.188 0 0 0-.002 6.374m-9.856 0a3.189 3.189 0 1 0-3.189-3.188 3.188 3.188 0 0 0 3.189 3.188m-9.857 0a3.188 3.188 0 1 0 .002-6.376 3.188 3.188 0 0 0-.002 6.376m-9.855 0a3.187 3.187 0 1 0 0-6.375 3.187 3.187 0 1 0 0 6.375m-9.858 0a3.19 3.19 0 0 0 3.192-3.188 3.19 3.19 0 0 0-6.377 0 3.187 3.187 0 0 0 3.185 3.188m-9.853 0a3.188 3.188 0 1 0-.002-6.376 3.188 3.188 0 0 0 .002 6.376m-9.858 0a3.187 3.187 0 1 0 .002-6.374 3.187 3.187 0 0 0-.002 6.374m-9.855 0a3.19 3.19 0 0 0 3.189-3.188 3.189 3.189 0 0 0-6.377 0 3.188 3.188 0 0 0 3.188 3.188m-9.856 0a3.187 3.187 0 1 0 0-6.375 3.188 3.188 0 1 0 0 6.375m-9.855 0a3.186 3.186 0 0 0 3.185-3.188 3.188 3.188 0 1 0-3.185 3.188m-9.858 0a3.189 3.189 0 1 0 .003-6.377 3.189 3.189 0 0 0-.003 6.377m-9.853 0a3.187 3.187 0 0 0 0-6.375 3.19 3.19 0 0 0-3.192 3.187 3.19 3.19 0 0 0 3.192 3.188m-9.858 0a3.187 3.187 0 1 0 .002-6.374 3.187 3.187 0 0 0-.002 6.374m-9.857 0a3.186 3.186 0 0 0 3.187-3.188 3.187 3.187 0 1 0-3.187 3.188m-9.855 0a3.19 3.19 0 0 0 3.189-3.188 3.189 3.189 0 0 0-6.377 0 3.188 3.188 0 0 0 3.188 3.188m-9.856 0a3.187 3.187 0 1 0 0-6.375 3.185 3.185 0 0 0-3.187 3.187 3.186 3.186 0 0 0 3.187 3.188m-9.857 0a3.187 3.187 0 1 0 0-6.375 3.187 3.187 0 1 0 0 6.375m-9.856 0a3.19 3.19 0 0 0 3.19-3.188 3.19 3.19 0 0 0-6.377 0 3.186 3.186 0 0 0 3.187 3.188m-9.855 0a3.187 3.187 0 1 0 0-6.375 3.19 3.19 0 0 0-3.19 3.187 3.19 3.19 0 0 0 3.19 3.188m-9.858 0a3.189 3.189 0 1 0 .003-6.377 3.189 3.189 0 0 0-.003 6.377m-9.855 0a3.188 3.188 0 1 0 .002-6.374 3.188 3.188 0 0 0-.002 6.374m-78.848-6.375a3.187 3.187 0 1 0 0 6.375 3.188 3.188 0 1 0 0-6.375m-59.135 6.375a3.188 3.188 0 1 0 0-6.375 3.188 3.188 0 1 0 0 6.375m-9.857 0a3.188 3.188 0 1 0 0-6.375 3.188 3.188 0 0 0 0 6.375m-9.856 0a3.188 3.188 0 1 0 .002-6.374 3.188 3.188 0 0 0-.002 6.374m-49.28 0a3.187 3.187 0 1 0 0-6.375 3.187 3.187 0 1 0 0 6.375m-9.856 0a3.188 3.188 0 1 0 0-6.375 3.188 3.188 0 0 0 0 6.375m-29.569 0a3.188 3.188 0 1 0 .001-6.377 3.188 3.188 0 0 0-.001 6.377m-9.855 0a3.188 3.188 0 1 0 0-6.375 3.188 3.188 0 0 0 0 6.375m-9.856 0a3.188 3.188 0 1 0 0-6.375 3.188 3.188 0 0 0 0 6.375m-9.856 0a3.188 3.188 0 1 0 0-6.375 3.188 3.188 0 0 0 0 6.375m-9.855 0a3.187 3.187 0 1 0 0-6.375 3.187 3.187 0 0 0 0 6.375m-9.857 0a3.188 3.188 0 1 0 .001-6.377 3.188 3.188 0 0 0-.001 6.377m-9.855 0a3.188 3.188 0 1 0 0-6.376 3.188 3.188 0 0 0 0 6.376m-9.857 0a3.188 3.188 0 1 0 0-6.375 3.188 3.188 0 0 0 0 6.375m-9.856 0a3.188 3.188 0 1 0 0-6.376 3.188 3.188 0 0 0 0 6.376m-9.856 0a3.188 3.188 0 1 0 .001-6.377 3.188 3.188 0 0 0-.001 6.377m-9.856 0a3.187 3.187 0 1 0 0-6.375 3.188 3.188 0 1 0 0 6.375m-9.857 0a3.188 3.188 0 1 0 .002-6.376 3.188 3.188 0 0 0-.002 6.376m-9.855 0a3.187 3.187 0 1 0 0-6.375 3.188 3.188 0 1 0 0 6.375m-9.857 0a3.188 3.188 0 1 0 .001-6.377 3.188 3.188 0 0 0-.001 6.377m-9.855 0a3.188 3.188 0 1 0 0-6.375 3.188 3.188 0 0 0 0 6.375m-9.856 0a3.188 3.188 0 1 0 0-6.376 3.188 3.188 0 0 0 0 6.376m-9.856 0a3.188 3.188 0 1 0 .001-6.377 3.188 3.188 0 0 0-.001 6.377m-9.856 0a3.188 3.188 0 1 0 0-6.376 3.188 3.188 0 0 0 0 6.376m-9.856 0a3.188 3.188 0 1 0 0-6.376 3.188 3.188 0 0 0 0 6.376m-9.856 0a3.188 3.188 0 1 0 0-6.376 3.188 3.188 0 0 0 0 6.376m877.185-16.222a3.179 3.179 0 1 0 0 6.357 3.179 3.179 0 0 0 0-6.357m-9.855-.01a3.19 3.19 0 0 0 0 6.376 3.187 3.187 0 0 0 3.187-3.187 3.187 3.187 0 0 0-3.187-3.189m-9.858 0a3.189 3.189 0 0 0 0 6.376 3.187 3.187 0 1 0 0-6.376m-9.855 6.376a3.19 3.19 0 0 0 3.189-3.187 3.188 3.188 0 1 0-3.189 3.187m-9.856 0a3.187 3.187 0 1 0 0-6.376 3.19 3.19 0 0 0-3.189 3.189 3.19 3.19 0 0 0 3.189 3.187m-9.855 0a3.188 3.188 0 1 0-.002-6.376 3.188 3.188 0 0 0 .002 6.376m-9.857 0a3.19 3.19 0 0 0 3.189-3.187 3.188 3.188 0 1 0-3.189 3.187m-9.856 0a3.19 3.19 0 0 0 3.19-3.187 3.188 3.188 0 1 0-3.19 3.187m-9.855 0a3.188 3.188 0 1 0-.003-6.377 3.188 3.188 0 0 0 .003 6.377m-9.858 0a3.19 3.19 0 0 0 3.192-3.187 3.191 3.191 0 0 0-3.192-3.189 3.185 3.185 0 0 0-3.185 3.189 3.185 3.185 0 0 0 3.185 3.187m-9.857 0a3.19 3.19 0 0 0 3.191-3.187 3.189 3.189 0 1 0-3.191 3.187m-9.854 0a3.187 3.187 0 1 0 0-6.376 3.189 3.189 0 0 0 0 6.376m-9.857 0a3.188 3.188 0 1 0 .002-6.376 3.188 3.188 0 0 0-.002 6.376m-9.856 0a3.19 3.19 0 0 0 3.19-3.187 3.189 3.189 0 1 0-3.19 3.187m-9.855 0a3.187 3.187 0 0 0 3.187-3.187 3.187 3.187 0 0 0-3.187-3.189 3.19 3.19 0 0 0-3.19 3.189 3.19 3.19 0 0 0 3.19 3.187m-9.856 0a3.189 3.189 0 1 0-.001-6.377 3.189 3.189 0 0 0 .001 6.377m-9.857 0a3.188 3.188 0 1 0 .002-6.376 3.188 3.188 0 0 0-.002 6.376m-9.854 0a3.187 3.187 0 1 0-3.191-3.187 3.19 3.19 0 0 0 3.191 3.187m-9.857 0a3.187 3.187 0 1 0 .001-6.375 3.187 3.187 0 0 0-.001 6.375m-9.855 0a3.187 3.187 0 0 0 3.185-3.187 3.187 3.187 0 1 0-3.185 3.187m-9.858 0a3.19 3.19 0 0 0 3.19-3.187 3.188 3.188 0 1 0-3.19 3.187m-9.855 0a3.187 3.187 0 1 0 0-6.374 3.187 3.187 0 0 0 0 6.374m-9.856 0a3.189 3.189 0 1 0-.001-6.377 3.189 3.189 0 0 0 .001 6.377m-9.857 0a3.188 3.188 0 1 0 .002-6.376 3.188 3.188 0 0 0-.002 6.376m-9.856 0a3.19 3.19 0 1 0 .002-6.378 3.19 3.19 0 0 0-.002 6.378m-9.855 0a3.188 3.188 0 1 0-.002-6.376 3.188 3.188 0 0 0 .002 6.376m-9.858 0a3.19 3.19 0 0 0 3.192-3.187 3.191 3.191 0 0 0-3.192-3.189 3.188 3.188 0 0 0 0 6.376m-9.855 0a3.19 3.19 0 0 0 3.189-3.187 3.19 3.19 0 1 0-3.189 3.187m-9.855 0a3.187 3.187 0 1 0 0-6.374 3.187 3.187 0 0 0 0 6.374m-9.858 0a3.19 3.19 0 0 0 3.192-3.187 3.191 3.191 0 0 0-3.192-3.189 3.187 3.187 0 0 0-3.185 3.189 3.186 3.186 0 0 0 3.185 3.187m-9.855-6.209a3.023 3.023 0 1 0 .001 6.045 3.023 3.023 0 0 0-.001-6.045m-9.856 6.209a3.187 3.187 0 1 0 0-6.376 3.19 3.19 0 0 0-3.189 3.189 3.19 3.19 0 0 0 3.189 3.187m-9.855 0a3.188 3.188 0 1 0-.003-6.377 3.188 3.188 0 0 0 .003 6.377m-9.858 0a3.19 3.19 0 1 0 .002-6.378 3.19 3.19 0 0 0-.002 6.378m-9.853 0a3.186 3.186 0 0 0 3.185-3.187 3.187 3.187 0 0 0-3.185-3.189 3.191 3.191 0 0 0-3.192 3.189 3.19 3.19 0 0 0 3.192 3.187m-9.858 0a3.187 3.187 0 1 0 .001-6.375 3.187 3.187 0 0 0-.001 6.375m-9.855 0a3.188 3.188 0 1 0-.002-6.376 3.188 3.188 0 0 0 .002 6.376m-19.713-.009a3.18 3.18 0 1 0 .001-6.359 3.18 3.18 0 0 0-.001 6.359m-9.855-6.357a3.18 3.18 0 1 0-.001 6.359 3.18 3.18 0 0 0 .001-6.359m-9.858 0a3.18 3.18 0 0 0-3.18 3.179 3.18 3.18 0 0 0 6.36 0 3.18 3.18 0 0 0-3.18-3.179m-9.855 6.366a3.187 3.187 0 0 0 0-6.376 3.19 3.19 0 0 0-3.19 3.189 3.19 3.19 0 0 0 3.19 3.187m-9.856 0a3.189 3.189 0 1 0-.001-6.377 3.189 3.189 0 0 0 .001 6.377m-9.857 0a3.189 3.189 0 1 0 0-6.378 3.189 3.189 0 0 0 0 6.378m-9.856 0a3.19 3.19 0 0 0 3.19-3.187 3.188 3.188 0 1 0-3.19 3.187m-137.983 0a3.188 3.188 0 1 0 0-6.376 3.188 3.188 0 0 0 0 6.376m-9.857 0a3.19 3.19 0 1 0 .002-6.378 3.19 3.19 0 0 0-.002 6.378m-9.855 0a3.188 3.188 0 1 0-.002-6.376 3.188 3.188 0 0 0 .002 6.376m-9.856 0a3.188 3.188 0 1 0-.002-6.376 3.188 3.188 0 0 0 .002 6.376m-9.856-5.518a2.331 2.331 0 1 0-.002 4.662 2.331 2.331 0 0 0 .002-4.662m-29.568 5.518a3.188 3.188 0 1 0-.002-6.376 3.188 3.188 0 0 0 .002 6.376m-9.857 0a3.188 3.188 0 1 0 .002-6.376 3.188 3.188 0 0 0-.002 6.376m-9.855 0a3.187 3.187 0 1 0 0-6.374 3.187 3.187 0 0 0 0 6.374m-29.569 0a3.188 3.188 0 1 0 0-6.376 3.188 3.188 0 0 0 0 6.376m-9.855 0a3.188 3.188 0 1 0-.002-6.376 3.188 3.188 0 0 0 .002 6.376m-9.857 0a3.189 3.189 0 1 0 0-6.378 3.189 3.189 0 0 0 0 6.378m-9.855 0a3.188 3.188 0 1 0 0-6.376 3.188 3.188 0 0 0 0 6.376m-9.856 0a3.189 3.189 0 1 0-.001-6.377 3.189 3.189 0 0 0 .001 6.377m-9.856 0a3.189 3.189 0 1 0-.001-6.377 3.189 3.189 0 0 0 .001 6.377m-9.856-6.223a3.035 3.035 0 1 0 0 6.07 3.035 3.035 0 0 0 0-6.07m-9.857 6.223a3.189 3.189 0 1 0 0-6.378 3.189 3.189 0 0 0 0 6.378m-9.855 0a3.188 3.188 0 1 0-.002-6.376 3.188 3.188 0 0 0 .002 6.376m-9.857 0a3.189 3.189 0 1 0 0-6.378 3.189 3.189 0 0 0 0 6.378m-9.856 0a3.187 3.187 0 1 0 0-6.376 3.189 3.189 0 0 0 0 6.376m-9.856 0a3.188 3.188 0 1 0 0-6.376 3.188 3.188 0 0 0 0 6.376m-9.856 0a3.188 3.188 0 1 0 0-6.376 3.188 3.188 0 0 0 0 6.376m-9.856 0a3.188 3.188 0 1 0 0-6.376 3.188 3.188 0 0 0 0 6.376m-9.856 0a3.189 3.189 0 1 0 0-6.378 3.189 3.189 0 0 0 0 6.378m-9.855 0a3.188 3.188 0 1 0-.002-6.376 3.188 3.188 0 0 0 .002 6.376m-9.857 0a3.189 3.189 0 1 0 0-6.378 3.189 3.189 0 0 0 0 6.378m-9.856 0a3.188 3.188 0 1 0 0-6.376 3.188 3.188 0 0 0 0 6.376m-9.856 0a3.188 3.188 0 1 0 0-6.376 3.188 3.188 0 0 0 0 6.376m-9.855 0a3.188 3.188 0 1 0-.002-6.376 3.188 3.188 0 0 0 .002 6.376m857.472-9.855a3.188 3.188 0 1 0 0-6.376 3.188 3.188 0 0 0 0 6.376m-9.855 0a3.188 3.188 0 1 0-.002-6.376 3.188 3.188 0 0 0 .002 6.376m-9.858 0a3.188 3.188 0 1 0 0 0m-9.853-.01a3.18 3.18 0 1 0-.002-6.358 3.18 3.18 0 0 0 .002 6.358m-9.857.01a3.189 3.189 0 0 0 0-6.376 3.188 3.188 0 1 0 0 6.376m-9.858 0a3.191 3.191 0 0 0 3.192-3.189 3.19 3.19 0 0 0-3.192-3.187 3.185 3.185 0 0 0-3.185 3.187 3.187 3.187 0 0 0 3.185 3.189m-9.853 0a3.189 3.189 0 1 0-.004-6.378 3.189 3.189 0 0 0 .004 6.378m-9.858 0a3.188 3.188 0 1 0 0-6.376 3.184 3.184 0 0 0-3.185 3.187 3.185 3.185 0 0 0 3.185 3.189m-9.857 0a3.188 3.188 0 1 0 .002-6.376 3.188 3.188 0 0 0-.002 6.376m-9.856 0a3.188 3.188 0 1 0 0 0m-9.855 0a3.189 3.189 0 1 0 0-6.377 3.189 3.189 0 0 0 0 6.377m-9.856 0a3.19 3.19 0 0 0 0-6.376 3.188 3.188 0 1 0 0 6.376m-9.857 0a3.189 3.189 0 1 0 0-6.377 3.189 3.189 0 0 0 0 6.377m-9.854 0a3.19 3.19 0 1 0-.002-6.378 3.19 3.19 0 0 0 .002 6.378m-9.857 0a3.188 3.188 0 1 0 0-6.376 3.188 3.188 0 0 0 0 6.376m-9.855 0a3.189 3.189 0 1 0-.004-6.378 3.189 3.189 0 0 0 .004 6.378m-9.856 0a3.19 3.19 0 1 0-.002-6.378 3.19 3.19 0 0 0 .002 6.378m-9.855 0a3.187 3.187 0 0 0 3.185-3.189 3.188 3.188 0 1 0-3.185 3.189m-9.858 0a3.19 3.19 0 0 0 0-6.376 3.186 3.186 0 0 0-3.187 3.187 3.187 3.187 0 0 0 3.187 3.189m-9.857 0a3.188 3.188 0 1 0 .002-6.376 3.188 3.188 0 0 0-.002 6.376m-9.854 0a3.19 3.19 0 0 0 0-6.376 3.188 3.188 0 1 0 0 6.376m-9.857 0a3.187 3.187 0 0 0 3.187-3.189 3.187 3.187 0 1 0-6.375 0 3.188 3.188 0 0 0 3.188 3.189m-9.858 0a3.191 3.191 0 0 0 3.192-3.189 3.19 3.19 0 0 0-3.192-3.187 3.186 3.186 0 0 0-3.185 3.187 3.187 3.187 0 0 0 3.185 3.189m-9.853 0a3.188 3.188 0 1 0-.002-6.376 3.188 3.188 0 0 0 .002 6.376m-9.858 0a3.188 3.188 0 1 0 0-6.376 3.188 3.188 0 0 0 0 6.376m-9.857 0a3.19 3.19 0 0 0 3.191-3.189 3.19 3.19 0 0 0-6.377 0 3.187 3.187 0 0 0 3.186 3.189m-9.853 0a3.19 3.19 0 1 0-3.19-3.189 3.19 3.19 0 0 0 3.19 3.189m-19.713 0a3.189 3.189 0 0 0 0-6.376 3.188 3.188 0 1 0 0 6.376m-19.711 0a3.189 3.189 0 1 0-.004-6.378 3.189 3.189 0 0 0 .004 6.378m-12.022-3.189a2.164 2.164 0 1 0 4.327 0 2.164 2.164 0 0 0-4.327 0m-56.97 3.189a3.187 3.187 0 0 0 3.185-3.189 3.186 3.186 0 1 0-6.373 0 3.188 3.188 0 0 0 3.188 3.189m-9.858 0a3.188 3.188 0 1 0 0-6.376 3.188 3.188 0 0 0 0 6.376m-9.857 0a3.188 3.188 0 1 0 .002-6.376 3.188 3.188 0 0 0-.002 6.376m-9.854 0a3.19 3.19 0 0 0 0-6.376 3.186 3.186 0 0 0-3.187 3.187 3.187 3.187 0 0 0 3.187 3.189m-9.857 0a3.188 3.188 0 1 0-.001-6.375 3.188 3.188 0 0 0 .001 6.375m-10.903-3.189a1.047 1.047 0 1 0 2.094 0 1.047 1.047 0 0 0-2.094 0M357.49 68.993a3.187 3.187 0 1 0 0 6.374 3.187 3.187 0 0 0 0-6.374m-9.855 0a3.188 3.188 0 1 0-.002 6.376 3.188 3.188 0 0 0 .002-6.376m-9.857 0a3.188 3.188 0 1 0 .002 6.376 3.188 3.188 0 0 0-.002-6.376m-9.855 6.376a3.188 3.188 0 1 0-.001-6.375 3.188 3.188 0 0 0 .001 6.375m-9.858 0a3.188 3.188 0 1 0 0 0m-9.855 0a3.188 3.188 0 1 0 0-6.377 3.188 3.188 0 0 0 0 6.377m-9.855 0a3.188 3.188 0 1 0-.002-6.376 3.188 3.188 0 0 0 .002 6.376m-49.281-.01a3.18 3.18 0 1 0 .001-6.359 3.18 3.18 0 0 0-.001 6.359m-9.856.01a3.188 3.188 0 1 0 0-6.377 3.188 3.188 0 0 0 0 6.377m-29.569 0a3.188 3.188 0 1 0 .002-6.376 3.188 3.188 0 0 0-.002 6.376m-13.034-3.189a3.179 3.179 0 1 0 6.357 0 3.179 3.179 0 0 0-6.357 0m-6.677 3.189a3.19 3.19 0 0 0 0-6.376 3.188 3.188 0 0 0 0 6.376m-9.856 0a3.188 3.188 0 1 0 .002-6.376 3.188 3.188 0 0 0-.002 6.376m-19.712-.01a3.179 3.179 0 1 0 0-6.358 3.18 3.18 0 1 0 0 6.358m-19.712.01a3.188 3.188 0 1 0 0-6.377 3.188 3.188 0 0 0 0 6.377m-9.856 0a3.188 3.188 0 1 0 0-6.377 3.188 3.188 0 0 0 0 6.377m-9.856 0a3.188 3.188 0 1 0 0-6.377 3.188 3.188 0 0 0 0 6.377m-9.856 0a3.188 3.188 0 1 0-.001-6.375 3.188 3.188 0 0 0 .001 6.375m-9.857 0a3.189 3.189 0 1 0 0-6.377 3.189 3.189 0 0 0 0 6.377m-9.855 0a3.188 3.188 0 1 0-.001-6.375 3.188 3.188 0 0 0 .001 6.375m-9.856 0a3.19 3.19 0 1 0-.002-6.378 3.19 3.19 0 0 0 .002 6.378m-9.856 0a3.188 3.188 0 1 0 0-6.377 3.188 3.188 0 0 0 0 6.377m-9.856 0a3.19 3.19 0 0 0 0-6.376 3.188 3.188 0 0 0 0 6.376m-9.856 0a3.188 3.188 0 1 0 .002-6.376 3.188 3.188 0 0 0-.002 6.376m-9.856 0a3.188 3.188 0 1 0-.002-6.376 3.188 3.188 0 0 0 .002 6.376m-9.856 0a3.19 3.19 0 1 0-.002-6.378 3.19 3.19 0 0 0 .002 6.378m-9.856 0a3.188 3.188 0 1 0 0-6.377 3.188 3.188 0 0 0 0 6.377m-9.856 0a3.188 3.188 0 1 0 0-6.377 3.188 3.188 0 0 0 0 6.377m-9.856-5.864a2.675 2.675 0 0 0 0 5.349 2.674 2.674 0 0 0 0-5.349m877.185-3.993a3.188 3.188 0 1 0 0-6.376 3.188 3.188 0 0 0 0 6.376m-59.136 0a3.19 3.19 0 0 0 3.189-3.188 3.189 3.189 0 0 0-6.377 0 3.188 3.188 0 0 0 3.188 3.188m-19.713 0a3.188 3.188 0 1 0 .001-6.377 3.188 3.188 0 0 0-.001 6.377m-9.856 0a3.189 3.189 0 1 0 .003-6.377 3.189 3.189 0 0 0-.003 6.377m-9.855 0a3.188 3.188 0 1 0 0-6.375 3.19 3.19 0 0 0-3.19 3.187 3.19 3.19 0 0 0 3.19 3.188m-9.856 0a3.188 3.188 0 1 0 0-6.376 3.188 3.188 0 0 0 0 6.376m-9.857-.009a3.178 3.178 0 1 0 0-6.358 3.181 3.181 0 0 0-3.18 3.179 3.18 3.18 0 0 0 3.18 3.179m-9.854.009a3.189 3.189 0 1 0-.001-6.373 3.189 3.189 0 0 0 .001 6.373m-9.857 0a3.187 3.187 0 1 0 .002-6.374 3.187 3.187 0 0 0-.002 6.374m-9.855 0a3.186 3.186 0 0 0 3.185-3.188 3.188 3.188 0 1 0-3.185 3.188m-9.858 0a3.189 3.189 0 1 0 .003-6.377 3.189 3.189 0 0 0-.003 6.377m-9.853 0a3.186 3.186 0 0 0 3.185-3.188 3.188 3.188 0 1 0-3.185 3.188m-9.858 0a3.188 3.188 0 1 0 0-6.376 3.188 3.188 0 0 0 0 6.376m-9.857-9.856a3.19 3.19 0 1 0 0-6.378 3.19 3.19 0 0 0 0 6.378m0 9.856a3.188 3.188 0 1 0 .001-6.377 3.188 3.188 0 0 0-.001 6.377m-9.854 0a3.188 3.188 0 1 0 0-6.376 3.188 3.188 0 0 0 0 6.376m-9.857 0a3.186 3.186 0 0 0 3.187-3.188 3.185 3.185 0 0 0-3.187-3.187 3.187 3.187 0 1 0 0 6.375m-9.858 0a3.19 3.19 0 0 0 3.192-3.188 3.19 3.19 0 0 0-6.377 0 3.186 3.186 0 0 0 3.185 3.188m-9.853 0a3.189 3.189 0 1 0-.003-6.377 3.189 3.189 0 0 0 .003 6.377m-9.858 0a3.187 3.187 0 1 0 .002-6.374 3.187 3.187 0 0 0-.002 6.374m-9.857 0a3.188 3.188 0 1 0 .002-6.376 3.188 3.188 0 0 0-.002 6.376m-9.853 0a3.188 3.188 0 1 0-.003-6.373 3.188 3.188 0 0 0 .003 6.373m-9.858 0a3.189 3.189 0 1 0 .003-6.377 3.189 3.189 0 0 0-.003 6.377m-9.855 0a3.188 3.188 0 1 0-.002-6.376 3.188 3.188 0 0 0 .002 6.376m-9.858 0a3.189 3.189 0 1 0 .003-6.377 3.189 3.189 0 0 0-.003 6.377m-29.566 0a3.187 3.187 0 0 0 0-6.375 3.188 3.188 0 1 0 0 6.375m-68.994-.009a3.178 3.178 0 1 0 0-6.358 3.18 3.18 0 0 0 0 6.358m-128.127-6.366a3.188 3.188 0 1 0-.002 6.376 3.188 3.188 0 0 0 .002-6.376m-9.856 6.375a3.188 3.188 0 1 0 0-6.375 3.188 3.188 0 0 0 0 6.375m-9.856 0a3.188 3.188 0 1 0 0-6.375 3.188 3.188 0 0 0 0 6.375m-9.856 0a3.188 3.188 0 1 0 .001-6.377 3.188 3.188 0 0 0-.001 6.377m-9.855 0a3.187 3.187 0 1 0 0-6.375 3.188 3.188 0 1 0 0 6.375m-9.858 0a3.189 3.189 0 1 0 .003-6.377 3.189 3.189 0 0 0-.003 6.377m-9.855 0a3.188 3.188 0 1 0 0-6.375 3.188 3.188 0 0 0 0 6.375m-9.855 0a3.187 3.187 0 1 0 0-6.375 3.187 3.187 0 0 0 0 6.375m-59.137-6.367a3.18 3.18 0 1 0 0 6.359 3.18 3.18 0 0 0 0-6.359m-9.856 6.367a3.188 3.188 0 1 0 0-6.375 3.188 3.188 0 0 0 0 6.375m-9.856 0a3.188 3.188 0 1 0 0-6.375 3.188 3.188 0 1 0 0 6.375m-9.857 0a3.188 3.188 0 1 0 .001-6.377 3.188 3.188 0 0 0-.001 6.377m-8.823-3.188a1.033 1.033 0 1 0-2.066 0 1.033 1.033 0 0 0 2.066 0m-20.744-3.179a3.18 3.18 0 1 0 0 6.359 3.18 3.18 0 0 0 0-6.359m-29.568 6.367a3.188 3.188 0 1 0 0-6.376 3.188 3.188 0 0 0 0 6.376m-9.856 0a3.188 3.188 0 1 0 0-6.376 3.188 3.188 0 0 0 0 6.376m-9.856 0a3.187 3.187 0 1 0 0-6.375 3.188 3.188 0 1 0 0 6.375m611.073-9.856a3.188 3.188 0 1 0 0-6.375 3.188 3.188 0 0 0 0 6.375m-19.713 0a3.19 3.19 0 0 0 3.19-3.188 3.19 3.19 0 0 0-6.377 0 3.19 3.19 0 0 0 3.187 3.188m-9.853 0a3.187 3.187 0 0 0 3.185-3.188 3.187 3.187 0 1 0-3.185 3.188m-9.858-6.376a3.187 3.187 0 0 0-3.187 3.188 3.187 3.187 0 1 0 6.375 0 3.189 3.189 0 0 0-3.188-3.188m-22.9 3.188a3.19 3.19 0 1 0 6.378-.002 3.19 3.19 0 0 0-6.378.002m-6.668-3.188a3.188 3.188 0 1 0 0 6.375 3.188 3.188 0 0 0 0-6.375m-13.043 3.188a3.187 3.187 0 0 0 3.185 3.188 3.191 3.191 0 0 0 3.192-3.188c0-1.76-1.43-3.188-3.192-3.188a3.187 3.187 0 0 0-3.185 3.188m-6.668 3.188a3.19 3.19 0 0 0 3.187-3.188 3.19 3.19 0 0 0-6.377 0 3.19 3.19 0 0 0 3.19 3.188m-9.858 0a3.188 3.188 0 1 0 0-6.375 3.188 3.188 0 0 0 0 6.375m-9.857 0a3.188 3.188 0 1 0 .001-6.377 3.188 3.188 0 0 0-.001 6.377m-19.711-1.199c1.1 0 1.988-.891 1.988-1.989a1.988 1.988 0 1 0-1.988 1.989m-9.855 1.189a3.178 3.178 0 1 0 0-6.357 3.178 3.178 0 1 0 0 6.357m-39.424.01a3.188 3.188 0 1 0-.002-6.376 3.188 3.188 0 0 0 .002 6.376m-206.977 0a3.188 3.188 0 1 0 0-6.376 3.188 3.188 0 0 0 0 6.376m-9.856 0a3.188 3.188 0 1 0 0-6.376 3.188 3.188 0 0 0 0 6.376m-9.856 0a3.19 3.19 0 1 0 0-6.378 3.19 3.19 0 0 0 0 6.378m-9.855 0a3.188 3.188 0 1 0-.002-6.376 3.188 3.188 0 0 0 .002 6.376m-9.858 0a3.19 3.19 0 0 0 3.19-3.188 3.19 3.19 0 0 0-6.377 0 3.188 3.188 0 0 0 3.187 3.188m-9.855 0a3.188 3.188 0 1 0-.002-6.376 3.188 3.188 0 0 0 .002 6.376m-9.855 0a3.189 3.189 0 1 0-.003-6.377 3.189 3.189 0 0 0 .003 6.377m-9.857 0a3.188 3.188 0 1 0 0-6.376 3.188 3.188 0 0 0 0 6.376m-59.136-6.353a3.166 3.166 0 1 0 0 6.332 3.166 3.166 0 0 0 0-6.332m-19.713 6.353a3.19 3.19 0 1 0 0-6.378 3.19 3.19 0 0 0 0 6.378m-9.855 0a3.188 3.188 0 1 0-.002-6.376 3.188 3.188 0 0 0 .002 6.376m-13.035-3.188a3.177 3.177 0 0 0 3.179 3.178 3.18 3.18 0 1 0-3.179-3.178m-16.533 3.188a3.189 3.189 0 1 0-.002-6.378 3.189 3.189 0 0 0 .002 6.378m-19.712 0a3.189 3.189 0 1 0-.002-6.378 3.189 3.189 0 0 0 .002 6.378m-19.712 0a3.187 3.187 0 1 0 0-6.375 3.187 3.187 0 0 0 0 6.375m-9.857 0a3.19 3.19 0 0 0 0-6.376 3.188 3.188 0 0 0 0 6.376m-9.856 0a3.188 3.188 0 1 0 0-6.375 3.188 3.188 0 0 0 0 6.375m689.921-9.855a3.19 3.19 0 0 0 0-6.377 3.188 3.188 0 0 0 0 6.377m-19.711 0a3.189 3.189 0 1 0 0-6.377 3.189 3.189 0 0 0 0 6.377m-78.848 0a3.19 3.19 0 0 0 0-6.377 3.187 3.187 0 0 0-3.187 3.188 3.187 3.187 0 0 0 3.187 3.189m-9.857 0a3.19 3.19 0 1 0 0-6.379 3.19 3.19 0 0 0 0 6.379m-9.854 0a3.19 3.19 0 1 0-.002-6.378 3.19 3.19 0 0 0 .002 6.378m-9.857 0a3.187 3.187 0 0 0 3.187-3.189 3.187 3.187 0 1 0-6.375 0 3.188 3.188 0 0 0 3.188 3.189m-9.858-6.377a3.188 3.188 0 0 0-3.185 3.188 3.187 3.187 0 0 0 3.185 3.189 3.191 3.191 0 0 0 3.192-3.189 3.192 3.192 0 0 0-3.192-3.188m-9.853 6.377a3.19 3.19 0 0 0 0-6.377 3.19 3.19 0 0 0 0 6.377m-78.85 0a3.188 3.188 0 1 0 0-6.376 3.188 3.188 0 0 0 0 6.376m-197.121-6.368a3.179 3.179 0 1 0 0 6.357 3.179 3.179 0 0 0 0-6.357m-9.855 6.368a3.19 3.19 0 1 0-.002-6.378 3.19 3.19 0 0 0 .002 6.378m-9.856 0a3.188 3.188 0 1 0 0-6.377 3.188 3.188 0 0 0 0 6.377m-9.856 0a3.188 3.188 0 1 0 0-6.377 3.188 3.188 0 0 0 0 6.377m-9.856 0a3.19 3.19 0 0 0 3.189-3.189 3.19 3.19 0 1 0-3.189 3.189m-9.855 0a3.188 3.188 0 1 0-.002-6.376 3.188 3.188 0 0 0 .002 6.376m-9.858 0a3.188 3.188 0 1 0 0-6.376 3.188 3.188 0 0 0 0 6.376m-9.855 0a3.188 3.188 0 1 0-.002-6.376 3.188 3.188 0 0 0 .002 6.376m-9.856 0a3.19 3.19 0 1 0-.002-6.378 3.19 3.19 0 0 0 .002 6.378m-9.856 0a3.188 3.188 0 1 0 0-6.377 3.188 3.188 0 0 0 0 6.377m-9.857 0a3.188 3.188 0 1 0 0-6.377 3.188 3.188 0 0 0 0 6.377m-55.956-3.189a3.18 3.18 0 1 0-6.359 0 3.18 3.18 0 0 0 6.359 0m-13.036 3.189a3.188 3.188 0 1 0 0-6.377 3.188 3.188 0 0 0 0 6.377m-9.856 0a3.188 3.188 0 1 0 0-6.377 3.188 3.188 0 0 0 0 6.377m-19.712 0a3.19 3.19 0 0 0 0-6.377 3.189 3.189 0 0 0 0 6.377m-9.855 0a3.19 3.19 0 1 0-.002-6.378 3.19 3.19 0 0 0 .002 6.378m-9.856-.024a3.165 3.165 0 1 0 0-6.33 3.166 3.166 0 1 0 0 6.33m-9.856.024a3.19 3.19 0 1 0-.002-6.378 3.19 3.19 0 0 0 .002 6.378m-19.713 0a3.188 3.188 0 1 0 0-6.376 3.188 3.188 0 0 0 0 6.376m561.793-10.552a2.495 2.495 0 0 0 2.496-2.492 2.495 2.495 0 0 0-4.988 0 2.493 2.493 0 0 0 2.492 2.492m-9.854.695a3.187 3.187 0 1 0 0-6.376 3.189 3.189 0 1 0 0 6.376m-213.656-3.187a3.18 3.18 0 1 0-6.358-.002 3.18 3.18 0 0 0 6.358.002m-91.883 3.187a3.188 3.188 0 1 0 .003-6.377 3.188 3.188 0 0 0-.003 6.377m-9.855-6.367a3.18 3.18 0 1 0 .001 6.359 3.18 3.18 0 0 0-.001-6.359m-9.856 6.367a3.187 3.187 0 1 0 .001-6.375 3.187 3.187 0 0 0-.001 6.375m-9.856 0a3.186 3.186 0 0 0 3.187-3.187 3.187 3.187 0 1 0-6.375 0 3.187 3.187 0 0 0 3.188 3.187m-9.856 0a3.187 3.187 0 1 0 .001-6.375 3.187 3.187 0 0 0-.001 6.375m-9.855 0a3.188 3.188 0 1 0-.001-6.377 3.188 3.188 0 0 0 .001 6.377m-9.858-6.376a3.188 3.188 0 1 0 .001 6.375 3.188 3.188 0 0 0-.001-6.375m-9.856 0a3.188 3.188 0 1 0 .001 6.375 3.188 3.188 0 0 0-.001-6.375m-9.855 0a3.188 3.188 0 1 0 0 6.376 3.188 3.188 0 0 0 0-6.376m-9.856 6.376a3.188 3.188 0 1 0-3.189-3.187 3.187 3.187 0 0 0 3.189 3.187m-9.857 0a3.188 3.188 0 1 0 0-6.376 3.188 3.188 0 0 0 0 6.376m-9.856 0a3.188 3.188 0 1 0 0-6.376 3.188 3.188 0 1 0 0 6.376m-9.855 0a3.188 3.188 0 1 0-.001-6.377 3.188 3.188 0 0 0 .001 6.377m-6.678-3.187a3.18 3.18 0 1 0-6.359-.001 3.18 3.18 0 0 0 6.359.001m-32.746 3.187a3.186 3.186 0 0 0 3.187-3.187 3.187 3.187 0 1 0-6.376 0 3.187 3.187 0 0 0 3.189 3.187m-9.857 0a3.188 3.188 0 1 0 0-6.376 3.188 3.188 0 0 0 0 6.376m-9.856-6.354a3.166 3.166 0 1 0 .002 6.332 3.166 3.166 0 0 0-.002-6.332m-19.712 6.354a3.188 3.188 0 1 0 .003-6.375 3.188 3.188 0 0 0-.003 6.375m-59.136 0a3.188 3.188 0 1 0 0-6.376 3.188 3.188 0 0 0 0 6.376m561.795-9.856a3.19 3.19 0 0 0 3.188-3.188 3.19 3.19 0 0 0-6.377 0 3.188 3.188 0 0 0 3.189 3.188m-9.857-.865a2.323 2.323 0 1 0-.001-4.645 2.323 2.323 0 0 0 .001 4.645m-197.121.865a3.187 3.187 0 0 0 3.187-3.188 3.187 3.187 0 1 0-6.375 0 3.187 3.187 0 0 0 3.188 3.188m-9.858 0a3.189 3.189 0 1 0 .003-6.377 3.189 3.189 0 0 0-.003 6.377m-9.853 0a3.189 3.189 0 1 0-.003-6.377 3.189 3.189 0 0 0 .003 6.377m-88.705 0a3.188 3.188 0 1 0-.002-6.376 3.188 3.188 0 0 0 .002 6.376m-9.857 0a3.188 3.188 0 1 0 .001-6.377 3.188 3.188 0 0 0-.001 6.377m-9.855 0a3.187 3.187 0 0 0 3.187-3.188 3.187 3.187 0 1 0-6.375 0 3.188 3.188 0 0 0 3.188 3.188m-9.857 0a3.188 3.188 0 1 0 .001-6.377 3.188 3.188 0 0 0-.001 6.377m-9.855 0a3.188 3.188 0 1 0 0-6.375 3.188 3.188 0 0 0 0 6.375m-9.857 0a3.187 3.187 0 0 0 3.188-3.188 3.187 3.187 0 1 0-6.376 0 3.188 3.188 0 0 0 3.188 3.188m-9.856 0a3.188 3.188 0 1 0 0-6.375 3.188 3.188 0 0 0 0 6.375m-9.855 0a3.188 3.188 0 1 0 0-6.376 3.188 3.188 0 0 0 0 6.376m-9.856 0a3.188 3.188 0 1 0 0-6.376 3.188 3.188 0 1 0 0 6.376m-9.857 0a3.188 3.188 0 1 0 0-6.375 3.188 3.188 0 0 0 0 6.375m-9.856 0a3.188 3.188 0 1 0 0-6.375 3.188 3.188 0 0 0 0 6.375m-9.855 0a3.187 3.187 0 1 0 0-6.375 3.187 3.187 0 0 0 0 6.375m-9.857 0a3.188 3.188 0 1 0 0-6.375 3.188 3.188 0 0 0 0 6.375m-19.712 0a3.188 3.188 0 1 0 .001-6.377 3.188 3.188 0 0 0-.001 6.377m-9.855 0a3.187 3.187 0 0 0 0-6.376 3.189 3.189 0 1 0 0 6.376m-9.857 0a3.188 3.188 0 1 0 0-6.376 3.188 3.188 0 0 0 0 6.376m-9.856-.009a3.179 3.179 0 1 0 0-6.357 3.179 3.179 0 0 0 0 6.357m-9.855.009a3.187 3.187 0 1 0 0-6.375 3.187 3.187 0 0 0 0 6.375m-29.569-.514a2.674 2.674 0 1 0 0-5.348 2.674 2.674 0 0 0 0 5.348m502.656-9.341a3.188 3.188 0 1 0 0-6.377 3.186 3.186 0 0 0-3.185 3.188 3.187 3.187 0 0 0 3.185 3.189m-285.824 0a3.19 3.19 0 1 0 .001-6.375 3.19 3.19 0 0 0-.001 6.375m-9.855 0a3.189 3.189 0 1 0-.004-6.378 3.189 3.189 0 0 0 .004 6.378m-9.857 0a3.19 3.19 0 0 0 0-6.377 3.188 3.188 0 0 0 0 6.377m-9.855 0a3.188 3.188 0 0 0 3.187-3.189 3.187 3.187 0 1 0-6.375 0 3.188 3.188 0 0 0 3.188 3.189m-9.857 0a3.19 3.19 0 0 0 0-6.377 3.188 3.188 0 0 0 0 6.377m-9.855 0a3.188 3.188 0 1 0 0-6.377 3.188 3.188 0 0 0 0 6.377m-9.857 0a3.188 3.188 0 1 0 0-6.376 3.188 3.188 0 0 0 0 6.376m-9.856 0a3.188 3.188 0 1 0 0-6.377 3.188 3.188 0 0 0 0 6.377m-9.855 0a3.19 3.19 0 1 0-.002-6.378 3.19 3.19 0 0 0 .002 6.378m-9.856 0a3.188 3.188 0 1 0 0-6.377 3.188 3.188 0 0 0 0 6.377m-9.857 0a3.188 3.188 0 1 0 0-6.377 3.188 3.188 0 0 0 0 6.377m-9.856 0a3.188 3.188 0 1 0 0-6.377 3.188 3.188 0 0 0 0 6.377m-9.856 0a3.188 3.188 0 1 0 0-6.377 3.188 3.188 0 0 0 0 6.377m-19.712 0a3.188 3.188 0 1 0 0-6.377 3.188 3.188 0 0 0 0 6.377m-9.856 0a3.188 3.188 0 1 0 0-6.377 3.188 3.188 0 0 0 0 6.377m-19.713-5.52a2.33 2.33 0 1 0 .001 4.661 2.33 2.33 0 0 0-.001-4.661m-19.71 5.52a3.189 3.189 0 1 0-.004-6.378 3.189 3.189 0 0 0 .004 6.378M357.489 5.032a1.843 1.843 0 1 0 0-3.688 1.845 1.845 0 0 0 0 3.688m-9.855 1.344a3.186 3.186 0 0 0 3.187-3.187 3.187 3.187 0 1 0-6.375 0 3.187 3.187 0 0 0 3.188 3.187m-9.857 0a3.188 3.188 0 1 0 .003-6.375 3.188 3.188 0 0 0-.003 6.375m-9.855 0a3.188 3.188 0 1 0-3.189-3.187 3.187 3.187 0 0 0 3.189 3.187m-9.857 0a3.187 3.187 0 1 0-3.188-3.187 3.187 3.187 0 0 0 3.188 3.187m-19.711-.008a3.18 3.18 0 1 0-.002-6.358 3.18 3.18 0 0 0 .002 6.358m-19.713.008a3.188 3.188 0 1 0 0-6.376 3.188 3.188 0 0 0 0 6.376m-19.712 0a3.188 3.188 0 1 0 0-6.376 3.188 3.188 0 0 0 0 6.376m-9.856 0a3.188 3.188 0 1 0 0-6.376 3.188 3.188 0 0 0 0 6.376m-9.856 0a3.188 3.188 0 1 0 0-6.376 3.188 3.188 0 0 0 0 6.376m-9.856 0a3.188 3.188 0 1 0 0-6.376 3.188 3.188 0 0 0 0 6.376m-9.855 0a3.186 3.186 0 0 0 3.186-3.187 3.189 3.189 0 1 0-3.186 3.187m-13.045-3.187a3.188 3.188 0 1 1 6.376-.002 3.188 3.188 0 0 1-6.376.002" opacity=".8"/>
    <circle xmlns="http://www.w3.org/2000/svg" fill="#D04B9B" cx="525.2" cy="122.5" r="19.2"/>
    <circle xmlns="http://www.w3.org/2000/svg" fill="#64CAE1" cx="448.5" cy="103.4" r="27.5"/>
</svg>
